<?xml version="1.0" encoding="UTF-8"?>
<svg version="1.1" xmlns="http://www.w3.org/2000/svg" width="380" height="190">
<path d="M0 0 C1.58206422 0.00574487 3.16410406 0.01876032 4.74609375 0.03515625 C7.53046875 0.05578125 10.31484375 0.07640625 13.18359375 0.09765625 C13.18359375 6.36765625 13.18359375 12.63765625 13.18359375 19.09765625 C17.47359375 19.09765625 21.76359375 19.09765625 26.18359375 19.09765625 C26.18359375 60.34765625 26.18359375 101.59765625 26.18359375 144.09765625 C33.11359375 144.09765625 40.04359375 144.09765625 47.18359375 144.09765625 C47.18359375 126.93765625 47.18359375 109.77765625 47.18359375 92.09765625 C57.41359375 92.09765625 67.64359375 92.09765625 78.18359375 92.09765625 C78.18359375 109.25765625 78.18359375 126.41765625 78.18359375 144.09765625 C85.11359375 144.09765625 92.04359375 144.09765625 99.18359375 144.09765625 C99.18359375 118.35765625 99.18359375 92.61765625 99.18359375 66.09765625 C109.41359375 66.09765625 119.64359375 66.09765625 130.18359375 66.09765625 C130.18359375 91.83765625 130.18359375 117.57765625 130.18359375 144.09765625 C137.11359375 144.09765625 144.04359375 144.09765625 151.18359375 144.09765625 C151.18359375 109.77765625 151.18359375 75.45765625 151.18359375 40.09765625 C161.41359375 40.09765625 171.64359375 40.09765625 182.18359375 40.09765625 C182.18359375 84.64765625 182.18359375 129.19765625 182.18359375 175.09765625 C135.57985185 175.13795928 135.57985185 175.13795928 116.11523438 175.14648438 C102.65242128 175.15242799 89.18961441 175.15943138 75.72680664 175.1730957 C65.92380835 175.18304072 56.1208151 175.18950924 46.31781191 175.19174474 C41.12379008 175.19305216 35.92978268 175.19613996 30.73576546 175.20338631 C25.85296154 175.21014366 20.97017807 175.2122738 16.08736992 175.21076393 C14.28978744 175.21104039 12.49220431 175.2130472 10.69462585 175.21686172 C8.25143413 175.22179453 5.80832088 175.22065608 3.36512756 175.21791077 C2.64432402 175.22082361 1.92352048 175.22373645 1.18087441 175.22673756 C-3.70228504 175.21177746 -3.70228504 175.21177746 -4.81640625 174.09765625 C-4.91563593 171.8723739 -4.94273045 169.64387541 -4.94338989 167.41638184 C-4.94494988 166.70977842 -4.94650987 166.003175 -4.94811714 165.27515936 C-4.9521295 162.88979903 -4.9489366 160.50450151 -4.94580078 158.11914062 C-4.94715472 156.41620344 -4.94893461 154.71326654 -4.95111084 153.0103302 C-4.95568608 148.37203319 -4.95389524 143.73375831 -4.95073175 139.09546089 C-4.94820862 134.25256412 -4.95054556 129.4096693 -4.95211792 124.56677246 C-4.95393975 116.43236957 -4.95153295 108.29797574 -4.94677734 100.16357422 C-4.9413347 90.74494052 -4.94309734 81.32632847 -4.94860375 71.90769529 C-4.95313449 63.83638686 -4.95378562 55.76508495 -4.95116508 47.69377565 C-4.94960209 42.86641872 -4.94940914 38.03907198 -4.95270157 33.2117157 C-4.95557972 28.6744402 -4.95360563 24.13719273 -4.94780731 19.59992027 C-4.94647941 17.92973057 -4.94687433 16.25953853 -4.94906998 14.58934975 C-4.95178032 12.31917765 -4.94840181 10.04909686 -4.94338989 7.77893066 C-4.94301287 6.50538979 -4.94263584 5.23184891 -4.94224739 3.91971588 C-4.74977051 -0.39668845 -4.50505462 0.11527775 0 0 Z " fill="#0070BB" transform="translate(197.81640625,14.90234375)"/>
<path d="M0 0 C10.23 0 20.46 0 31 0 C31 17.16 31 34.32 31 52 C37.93 52 44.86 52 52 52 C52 34.84 52 17.68 52 0 C79.39 0 106.78 0 135 0 C135 10.23 135 20.46 135 31 C117.84 31 100.68 31 83 31 C83 37.93 83 44.86 83 52 C100.16 52 117.32 52 135 52 C135 62.23 135 72.46 135 83 C73.62 83 12.24 83 -51 83 C-51 72.77 -51 62.54 -51 52 C-34.17 52 -17.34 52 0 52 C0 34.84 0 17.68 0 0 Z " fill="#00A89C" transform="translate(51,56)"/>
<path d="M0 0 C20.09068034 -0.51514565 20.09068034 -0.51514565 26 3 C31.43155501 8.56734388 31.34310545 13.01230963 31.28125 20.56640625 C30.90780383 25.12556156 30.20441774 26.79558226 27 30 C21.34812364 34.20267729 15.58005233 34.1618528 8.75 34.125 C7.65171875 34.13080078 7.65171875 34.13080078 6.53125 34.13671875 C1.12671034 34.12671034 1.12671034 34.12671034 0 33 C-0.08843793 30.55169574 -0.11528752 28.13179401 -0.09765625 25.68359375 C-0.0962413 24.95253922 -0.09482635 24.22148468 -0.09336853 23.46827698 C-0.08775408 21.12464368 -0.07519922 18.78110461 -0.0625 16.4375 C-0.05748686 14.85221492 -0.05292363 13.26692834 -0.04882812 11.68164062 C-0.03777997 7.7877239 -0.02050572 3.89387795 0 0 Z M11 8 C11 13.61 11 19.22 11 25 C17.62615035 25.81176109 17.62615035 25.81176109 20 23.0625 C21.35733866 18.90565036 21.10284718 15.2206708 20 11 C17.63333333 8.23333333 17.63333333 8.23333333 11 8 Z " fill="#0070BB" transform="translate(153,156)"/>
<path d="M0 0 C8.25 0 16.5 0 25 0 C25 2.64 25 5.28 25 8 C20.05 8 15.1 8 10 8 C10 9.65 10 11.3 10 13 C14.29 13 18.58 13 23 13 C23 15.64 23 18.28 23 21 C18.71 21 14.42 21 10 21 C10 22.32 10 23.64 10 25 C14.95 25 19.9 25 25 25 C25 27.97 25 30.94 25 34 C16.75 34 8.5 34 0 34 C0 22.78 0 11.56 0 0 Z " fill="#0070BB" transform="translate(118,156)"/>
<path d="M0 0 C3.63 0 7.26 0 11 0 C12.7154487 4.35743741 14.42425649 8.71739779 16.12695312 13.07983398 C16.70716309 14.56362037 17.28918376 16.04670004 17.87304688 17.52905273 C18.71180241 19.65946325 19.54402056 21.79232763 20.375 23.92578125 C20.63748535 24.58838455 20.8999707 25.25098785 21.17041016 25.93367004 C22.27483362 28.78572234 23 30.91109914 23 34 C19.7 34 16.4 34 13 34 C12.01 32.02 11.02 30.04 10 28 C7.03 28 4.06 28 1 28 C0.01 29.98 -0.98 31.96 -2 34 C-5.3 34 -8.6 34 -12 34 C-10.56350767 26.21487201 -7.88473935 19.24265167 -4.875 11.9375 C-4.40707031 10.78572266 -3.93914062 9.63394531 -3.45703125 8.44726562 C-2.31096484 5.62887782 -1.15850787 2.81329114 0 0 Z M5 12 C3.5393715 14.64738916 3 15.89448334 3 19 C4.65 19 6.3 19 8 19 C7.34 16.69 6.68 14.38 6 12 C5.67 12 5.34 12 5 12 Z " fill="#0070BB" transform="translate(86,156)"/>
<path d="M0 0 C1.37478516 0.01740234 1.37478516 0.01740234 2.77734375 0.03515625 C3.69644531 0.04417969 4.61554687 0.05320313 5.5625 0.0625 C6.27277344 0.07410156 6.98304687 0.08570313 7.71484375 0.09765625 C11.22311434 7.29973096 14.1677214 14.68158351 17.02734375 22.16015625 C17.38892578 23.10076904 17.75050781 24.04138184 18.12304688 25.01049805 C18.45884766 25.89648682 18.79464844 26.78247559 19.140625 27.6953125 C19.44395752 28.49461182 19.74729004 29.29391113 20.05981445 30.11743164 C20.71484375 32.09765625 20.71484375 32.09765625 20.71484375 34.09765625 C17.08484375 34.09765625 13.45484375 34.09765625 9.71484375 34.09765625 C7.71484375 30.09765625 7.71484375 30.09765625 7.71484375 27.09765625 C4.41484375 27.09765625 1.11484375 27.09765625 -2.28515625 27.09765625 C-2.94515625 29.40765625 -3.60515625 31.71765625 -4.28515625 34.09765625 C-7.91515625 34.09765625 -11.54515625 34.09765625 -15.28515625 34.09765625 C-13.13631581 26.56285124 -10.54508926 19.31728553 -7.66015625 12.03515625 C-7.04914062 10.46991211 -7.04914062 10.46991211 -6.42578125 8.87304688 C-2.98455448 0.12754506 -2.98455448 0.12754506 0 0 Z M1.71484375 12.09765625 C1.05484375 14.40765625 0.39484375 16.71765625 -0.28515625 19.09765625 C1.69484375 19.09765625 3.67484375 19.09765625 5.71484375 19.09765625 C4.72484375 16.78765625 3.73484375 14.47765625 2.71484375 12.09765625 C2.38484375 12.09765625 2.05484375 12.09765625 1.71484375 12.09765625 Z " fill="#0070BB" transform="translate(47.28515625,155.90234375)"/>
<path d="M0 0 C11.22 0 22.44 0 34 0 C34 10.23 34 20.46 34 31 C29.38 31 24.76 31 20 31 C20 24.73 20 18.46 20 12 C13.4 12 6.8 12 0 12 C0 8.04 0 4.08 0 0 Z " fill="#00A89C" transform="translate(193,0)"/>
<path d="M0 0 C1.14210938 -0.00257813 2.28421875 -0.00515625 3.4609375 -0.0078125 C6.625 0.125 6.625 0.125 10.625 1.125 C10.625 4.095 10.625 7.065 10.625 10.125 C9.78195313 10.0528125 8.93890625 9.980625 8.0703125 9.90625 C6.42675781 9.76703125 6.42675781 9.76703125 4.75 9.625 C3.65945312 9.5321875 2.56890625 9.439375 1.4453125 9.34375 C-0.15829564 9.21937042 -1.76657551 9.125 -3.375 9.125 C-2.52805848 11.37129519 -2.52805848 11.37129519 0.0234375 12.08984375 C2.00233795 12.73649232 3.98150348 13.38233029 5.9609375 14.02734375 C8.60531012 15.11688731 9.93054561 15.8528907 11.625 18.125 C12.59749497 22.43176344 13.1387552 24.84061199 11.5 28.9375 C8.5757828 32.34908673 5.97199173 33.96996259 1.46875 34.48828125 C0.3653125 34.47152344 -0.738125 34.45476562 -1.875 34.4375 C-2.9784375 34.43363281 -4.081875 34.42976563 -5.21875 34.42578125 C-8.32035844 34.13020718 -10.56897443 33.4390157 -13.375 32.125 C-13.375 29.485 -13.375 26.845 -13.375 24.125 C-8.425 24.455 -3.475 24.785 1.625 25.125 C1.625 24.135 1.625 23.145 1.625 22.125 C1.04492188 22.03863281 0.46484375 21.95226562 -0.1328125 21.86328125 C-5.90575727 20.8249133 -9.6105799 19.75813243 -13.375 15.125 C-14.15522891 11.63658524 -14.18148894 8.60997412 -13.375 5.125 C-9.19115609 0.61085263 -5.96403922 -0.01340234 0 0 Z " fill="#0070BB" transform="translate(14.375,155.875)"/>
</svg>
