<?xml version="1.0" encoding="utf-8"?>
<!-- Generator: Adobe Illustrator 27.6.1, SVG Export Plug-In . SVG Version: 6.00 Build 0)  -->
<svg version="1.1" id="Layer_1" xmlns="http://www.w3.org/2000/svg" xmlns:xlink="http://www.w3.org/1999/xlink" x="0px" y="0px"
	 viewBox="0 0 283.46 283.46" style="enable-background:new 0 0 283.46 283.46;" xml:space="preserve">
<style type="text/css">
	.st0{fill:#008066;}
	.st1{fill-rule:evenodd;clip-rule:evenodd;fill:#008066;}
	.st2{fill-rule:evenodd;clip-rule:evenodd;fill:#FFFFFF;}
	.st3{fill:#1A7D65;}
	.st4{fill:#FFFFFF;}
</style>
<path class="st1" d="M23.19,24.44c2.33,0.59,2.61,3.45,4.84,3.71c3.02-0.16,6.35-2.27,9.38-1.98c2.44,0,9.93,4.31,12.84,3.96
	c2.65-0.31,7.44,1.19,10.13,2.98c1.81,1.2,14.85,8.32,22.43,7.31c1.41,0.17,2.95-1.21,4.4-1.38c1.66-0.2,3.61-0.21,5.11,0.63
	c3.11,1.73,5.22,4.11,9.01,3.76c4.58-0.42,7.82-1.85,11.6-3.96c1.41-0.79,2.35-1.8,4.18-2.26c3.32-0.85,1.67-2.56,4.27-4.28
	c4.73-3.12,8.8,7.48,10.89,10.01c2.24,2.72,0.78,5.41,1.23,8.71c0.03,0.24,1.56,4.22,4.15,5.42c6.61,3.05,6.97,11.93,5.69,18.78
	c-0.85,4.55-3.31,6.5-5.15,10.5c-1.09,2.37-1.78,5.55-1.83,8.06c-0.15,7.56,0.05,13.96,2.09,20.79c1.17,3.9,2.86,6.21,6.9,7.54
	c2.91,0.96,7.98,5.01,10.95,10.14c1.56,2.69,2.52,4.24,3.77,6.82c1.31,2.92,2.8,8.52,5.61,9.81c4.87,2.22,10.5-5.78,12.39-1.82
	c1.06,2.21-4.52,4.72-5.6,7.93c-1.57,4.64,2.67,11.98,5.73,15.2c5.06,5.32,4.92,5.08,5.22,11.5c0.13,2.86-5.08,8.51-2.5,12.15
	c1.39,1.95,2.5,4.59,2.5,7.15c0,4.71-1.23,6.99-3.78,10.53c-2.5,3.47-6.04,10.52-8.55,6.85c-4.01-5.89-11.99,8.02-13.77,10.67
	c-2.08,3.09-3.78,4.41-7.15,4.41c-8.73,0-17.47,0-26.2,0c-19.05,0-38.1,0-57.14,0c-13.33,0-26.58-0.08-39.83,0.07
	c-2.36,0.03-5.08,1.06-5.21-2.09c-0.15-3.44,0-6.89-0.02-10.32c-0.03-5.08-0.01-10.16-0.06-15.25c-0.35-27.67-0.23-55.34-0.41-83.07
	c-0.04-5.72,0.03-11.52-0.14-17.3c-0.34-11.75,1.66-24.89-1.32-36.27c-1.02-3.92-3.63-7.28-3.59-11.4c0.05-5.4,5.49-9.03,5.37-14.28
	C21.4,35.21,14.19,31.87,23.19,24.44z"/>
<path class="st1" d="M142.63,45.64c3.04,4.62-0.3,4.31-1.14,8.1c-0.94,4.28-5.52-1.32-4.87-4.48c1.23-5.85-1.72-7.88-4.72-12.74
	c-1.55-2.51-6.92-8.46-0.13-8.69c1.17,2.07,0.51,3.06,2.77,4.25c0.88,0.46,4.47,1.72,4.45-0.11c0-0.77-1.95-1.33-2.12-2.89
	c-0.34-2.95,1.38-3.7,4.18-2.86c3.67,1.1,12.09,3.2,9.09,8.27C147.89,38.59,142.5,39.85,142.63,45.64z"/>
<path class="st1" d="M154.96,32.41c1.75,2.39,2.38,2.85,4.98,4.28c2.38,1.33,1.03,1.99,1.56,4.25c0.42,1.78,2.8,0.67,2.84,3.12
	c0.03,2.3-0.01,4.61-0.03,6.92c-0.03,3.5,0.68,4.86,3.5,7.57c1.86,3.27,3.25,4.32,3.83,7.85c0.45,2.77-0.19,5.89,0.37,8.52
	c-0.12,3.14,3.61,5.59,4.54,8.36c1.43,4.25,0.32,5.82,3.24,9.88c2.5,3.47,4.13,6.51,8.22,8.56c4.21,2.11,6.43,4.74,6.37,9.47
	c-0.08,6.25,3.49,7.46,6.76,12.38c2.67,4.02,3.16,8.83,6.5,12.24c2.35,2.4,3.56,6.06,5.04,9.06c2.2,4.48,4.55,8.49,7.75,12.35
	c3.26,3.93,2.68,8.67,5.55,12.79c2.79,4.02,5.46,7.77,8.18,11.84c1.8,2.7,3.2,6.35,6.41,7.48c1.98,0.7,3.17,2.23,4.69,3.21
	c3.08,1.98-5.09,1.89-5.61,1.95c0.63-0.08,2.39,11.76,2.46,12.88c0.31,4.79,3.1,8.93,7.06,11.69c1.31,0.91,2.73,2.33,4.43,2.14
	c2.39-0.26,3.06-1.16,4.82,0.94c0.57,0.7,8.36,11.75,8.8,11.01c-1.21,2.06-20.79,0.72-23.77,0.6c-7.74-0.31-15.44-0.23-23.2-0.33
	c-8.81-0.11-17.66,0.12-26.49,0.13c-5.92,0-11.82,0.01-17.73,0.01c-4.21,0-11.28,0.82-15.56-1.06c3.38-1.49,2.52-5.1,6.17-8.45
	c1.32-1.16,2.36-2.44,4.09-0.58c1.48,1.59,5.29,0.69,6.76-0.78c3.64-3.64,8.41-11.04,10.54-15.47c3.38-7.02-5.34-12.73-3-16.11
	c3-4.33,3.36-15.18-0.52-19.49c-3.49-3.88-8.07-9.18-7.49-14.93c0.41-4.12,3.1-4.27,4.93-7.7c1.67-3.14-0.18-5.95-3.81-6.75
	c-4.58-1-9.76,5.46-11.57,1.37c-1.69-3.84-3.9-8.39-5.52-10.73c-0.63-0.9-3.36-4.4-6.96-9.09c-1.38-1.81-5-4.7-6.88-4.94
	c-2.01-0.26-3.31-1.88-4.23-4.87c-1.57-5.16-2.68-11.97-2.08-17.09c0.3-4.71,0.76-9.19,3.43-12.92c3.3-4.61,4.62-12.24,3.99-18.16
	c-0.42-4.04-1.06-5.45-3.01-8.9c-1.52-2.68,1.3-4.49,2.35-6.96c1.13-2.65-0.95-3.95-0.89-6.35c0.18-4.46,6.96-5.15,7.51-9.03
	C154.46,33.85,154.77,32.83,154.96,32.41z"/>
<path class="st1" d="M215.22,65c2.46,2.1,4.78,7.14,4.57,9.55c-0.06,0.7-2.52,3.8-2.8,4.57c-0.59,2.84-0.84,5.57-1.27,8.38
	c-1.15,0.77-2.44,8.14-2.72,9.55c-0.24,1.22-1.83,2.75-1.23,4.06c0.71,1.54,1.8,3.22,0.45,4.91c-1,1.24-2.21,6.01-4.56,4.28
	c-2.82-2.04-5.68-2.08-7.7-5.07c-2.78-4.11-3.5-4.98-7.72-7.57c-1.83-1.75-2.4-5.2-2.95-7.62c-1.56-6.87-8.46-8.63-11.09-15.37
	c-1.32-3.38-1.55-7.47-3.21-10.6c-2.85-0.44-1.24-6.06-3.35-7.7c-2.23-1.74-4.42-6.69-3.88-9.24c1.1-5.14,2.69-6.68-2.11-9.95
	c4.83,0.8,8.19,2.79,12.73,0.2c4.4-2.51,4.99-2.78,9.78-0.81c3.34,1.37,8.83,1.96,11.89-0.44c4.51-3.53,3.66-1.91,5.18,3.05
	c0.84,2.76,1.33,5.39,2.36,8.13C209.16,51.47,211.7,61.98,215.22,65z"/>
<path class="st2" d="M69.49,220.5l-0.31-29.78l-0.1-16.06c0,0,0.04-13.73,0.04-16.86c0-3.14-0.18-6.2,0.14-8.04
	c0.31-1.85,0.85-2.99,0.85-2.99s-1.4-4.25-1.05-9.37c0.34-5.13,0.57-8.38,0.81-9.81c0.25-1.43,2-7.79,4.59-11.55
	c2.59-3.76,6.51-9.02,9.18-11.61c2.69-2.58,7.51-5.49,7.51-5.49l0.77,1.15c0,0-5.37,3.13-7.7,6.09c-2.34,2.96-7.67,9.05-9.43,12.48
	c-1.8,3.41-3.23,6.95-3.79,12.78c-0.13,5.72-0.5,8.12-0.37,9.99c0.14,1.88,0.56,3.66,0.56,3.66s2.39-3.9,7.4-7.35
	c4.99-3.46,10-7.73,14.35-13.6c4.36-5.89,8.96-10.54,12.06-17.69c1.33-3.12,0.63-11.79,0.09-14.39c-0.52-2.6-3.45-5.48-9.76-3.5
	c-7.65,2.39-16.24,8.83-24.03,18.59c-9.23,11.57-8.86,22.61-8.86,22.61l-0.37-0.03c0,0-2-3.23-4.7-5.1
	c-2.69-1.89-2.52-1.4-3.18-1.84c-0.69-0.43-1.34-1.13-1.8-1.15c-0.48-0.03-1.02,0.02-1.22-0.14c-0.17-0.2-1.78-1.8-3.87-2
	c-2.1-0.21-5.25-1.07-5.25-1.07l0.18-1.1c0,0,4.98,0.85,6.42,1.34c1.43,0.49,3.12,1.87,3.47,1.93c0.38,0.05,0.81,0.07,1.35,0.49
	c0.57,0.43,0.92,0.68,1.26,0.82c0.34,0.13,2.75,1.21,4.58,3.01c1.83,1.8,2.42,2.61,2.42,2.61s0.11-4.99-6.23-9.74
	c-3.44-2.56-4.19-3.25-7.86-5.18c-4.12-2.17-15.89-8.72-19.45-6.38c-3.55,2.34-2.96,7.88-2.44,11.78c0.53,3.9-0.02,10.2,7.8,12.72
	c7.77,2.51,14.74,2.08,18.64,2.08c3.91,0,7.91-0.66,11.22,3.77c3.32,4.43,1.43,14.87,0.82,19.09c-0.64,4.22-1.83,10.04-2.04,13.24
	c-0.21,3.2-0.42,7.39-0.72,9.55c-0.34,2.16-1.33,10.87-1.63,15.66c-0.26,4.76-0.86,14.39,0.46,19.67c1.33,5.29,3.46,6.36,5.13,6.71
	H69.49z"/>
<path class="st2" d="M89.68,211.34c1.31,0,2.39,0.96,2.39,2.15c0,1.17-1.08,2.13-2.39,2.13c-1.33,0-2.39-0.96-2.39-2.13
	C87.29,212.3,88.35,211.34,89.68,211.34z M95.26,211.34c1.32,0,2.4,0.96,2.4,2.15c0,1.17-1.08,2.13-2.4,2.13
	c-1.33,0-2.4-0.96-2.4-2.13C92.85,212.3,93.93,211.34,95.26,211.34z M113.63,177.73c1.33,0,2.41,0.97,2.41,2.14
	c0,1.18-1.08,2.14-2.41,2.14c-1.31,0-2.39-0.96-2.39-2.14C111.24,178.71,112.32,177.73,113.63,177.73z M140.98,208.77
	c0,0-1.83-1.83-1.83-6.97c0-5.13-0.07-18.45-0.07-21.8c0-3.33,1.83-6.38,1.83-6.38h-8.61c0,0,1.88,2.5,1.88,6.3v26.02h-8.24V195.1
	c0,0-0.79-9.69-12.27-9.48c-8.5,0.13-11.37,6.12-11.62,9.32c-0.24,2.75-2.16,7.24-2.16,7.24h8.76c0,0-1.89-2.3-1.94-7.27
	c-0.03-4.26,4.69-6.56,7.12-6.41c2.91,0.16,7.45,1.78,7.45,8.82v8.49H95.49c0,0,0.1-11.19,0.1-14.48c0-3.29,1.9-5.71,1.9-5.71h-8.66
	c0,0,1.89,2.98,1.89,5.75v14.52h-6.41c0,0,0.05-11.75,0.05-14.7c0-2.95,1.92-5.47,1.92-5.47h-8.72c0,0,2.01,2.92,2.01,5.29v15.75
	c0,8.86-7.01,8.83-7.01,8.83v4.91c0,0,5.3,0.77,9.56-4.18c2.62-3.06,2.24-7.54,2.24-7.54L140.98,208.77z M153.52,208.83h-8.7
	c0,0,1.96-3.75,1.96-5.86c0-2.11-0.04-18.61-0.04-23.1c0-3.44-1.95-6.27-1.95-6.27h8.65c0,0-1.89,2.81-1.89,5.89
	c0,3.08,0.04,21.35,0.04,23.51C151.6,205.17,153.52,208.83,153.52,208.83z M138.73,164.57v-9.18c0,0,0.64-5.7,5.4-5.7
	c4.75,0,5.4,4.68,5.4,7.23c0,2.56-1.35,7.84-5.03,7.84C140.82,164.76,138.73,164.57,138.73,164.57z M126.6,164.72h-16.55v-5.03
	c0,0,0.5-10.07,9.56-10.07c7.96,0,7.05,9.34,7.05,9.34L126.6,164.72z M88.26,173.18v4.18c0,0,4.47,0.68,7.27-3.99
	c1.86-3.16,1.31-6.27,1.31-6.27h47.1c0,0,9.54,0.08,9.54-9.76c0-9.88-7.77-10.23-9.67-10.23c-1.88,0-8.5,1.65-8.5,8.47v9.16h-5.16
	v-9.24c0,0-1.26-9.93-11.85-8.21c-4.74,0.78-7.6,3.21-9.28,7.85c-1.69,4.68-2.4,9.45-2.4,9.45h-1.08c0,0-0.03-10.99-0.03-12.81
	c0-1.81,1.52-4.67,1.52-4.67h-6.51c0,0,1.45,2.67,1.45,4.71v12.97h-5.1v-12.92c0,0,0.11-1.81,0.64-2.93
	c0.51-1.11,0.88-1.74,0.88-1.74h-6.44c0,0,1.43,2.54,1.43,4.64v14.73c0,0-0.47,3.38-1.65,4.78
	C90.07,173.37,88.26,173.18,88.26,173.18z M139.31,125.73c0,0-0.19-0.19-0.23-0.34c-0.05-0.14-0.23-0.62-0.79-0.62
	c-0.57,0-1.1,0.38-1.1,1.03c0,0.63,0.37,0.98,0.37,0.98h-0.24c0,0-0.16,0-0.23-0.03c-0.08-0.04-0.24-0.17-0.24-0.17v0.48h2.41v-0.44
	c0,0-0.18,0.23-0.32,0.23h-0.84c0,0-0.51-0.31-0.51-1.07c0-0.76,0.56-0.77,0.68-0.77c0.11,0,0.4,0.1,0.5,0.31c0.09,0.23,0,0.5,0,0.5
	L139.31,125.73z M142.12,134.26v-3.44c0,0-0.24-2.16-2.02-2.16c-1.78,0-2.01,1.76-2.01,2.72c0,0.98,0.5,2.96,1.88,2.96
	C141.35,134.34,142.12,134.26,142.12,134.26z M146.5,134.26v-3.44c0,0,0.24-2.16,2.03-2.16c1.77,0,2.01,1.76,2.01,2.72
	c0,0.98-0.5,2.96-1.89,2.96C147.28,134.34,146.5,134.26,146.5,134.26z M117.36,134.28v-3.26c0,0-0.23-2.34-2-2.34
	c-1.8,0-2.05,1.72-2.05,2.88c0,1.17,0.69,2.74,1.75,2.74C116.1,134.3,117.36,134.28,117.36,134.28z M115.95,125.28
	c0.34,0,0.64,0.29,0.64,0.65c0,0.36-0.3,0.65-0.64,0.65c-0.37,0-0.68-0.3-0.68-0.65C115.27,125.58,115.58,125.28,115.95,125.28z
	 M114.42,125.28c0.36,0,0.65,0.29,0.65,0.65c0,0.36-0.29,0.65-0.65,0.65c-0.37,0-0.67-0.3-0.67-0.65
	C113.75,125.58,114.04,125.28,114.42,125.28z M135.71,127.78h-2.27c0,0,0.59,1,0.59,1.64v4.92h-1.47v-5.03
	c0-0.51,0.59-1.55,0.59-1.55h-2.37c0,0,0.51,1.03,0.51,1.55v5.06h-1.38c0,0,0.06-4.49,0.06-5.22c0-0.75,0.5-1.39,0.5-1.39h-2.35
	c0,0,0.51,0.86,0.51,1.43v5.15h-1.64c0,0,0.04-4.38,0.04-5.12c0-0.74,0.62-1.44,0.62-1.44h-2.42c0,0,0.56,0.94,0.56,1.4v5.14h-1.45
	c0,0,0.04-4.45,0.04-5.14c0-0.7,0.59-1.4,0.59-1.4h-2.49c0,0,0.56,0.92,0.56,1.38v5.14h-1.38c0,0,0-4.5,0-5.21
	c0-0.7,0.53-1.36,0.53-1.36h-2.35c0,0,0.53,0.97,0.53,1.39v5.18h-1.8v-3.93c0,0-0.53-2.56-3.28-2.56c-2.73,0-3.31,2.78-3.31,3.85
	c0,1.07,0.81,3.51,3.02,3.51h20.83c0,0-0.61-0.68-0.61-1.7v-4.3C135.22,128.44,135.71,127.78,135.71,127.78z M143.41,135.16h5.38
	c0,0,3.1-0.16,3.1-3.61c0-3.47-2.85-3.77-3.57-3.77c-0.74,0-3.04,0.85-3.04,2.81v3.74h-1.86v-3.59c0,0-0.44-2.91-3.26-2.91
	c-2.83,0-3.37,2.72-3.37,3.81c0,1.09,0.92,3.52,2.94,3.52h2.41c0,0-0.27,2.28-1.94,2.28c-1.66,0-1.92-0.77-1.92-0.77h-1.48
	c0,0,0.61,2.21,3.44,2.21C143.33,138.88,143.41,135.16,143.41,135.16z"/>
<g>
	<g>
		<rect x="22.65" y="242.82" class="st0" width="2.13" height="1.99"/>
		<rect x="25.86" y="242.82" class="st0" width="2.12" height="1.99"/>
		<rect x="31" y="256.69" class="st0" width="2.12" height="1.98"/>
		<rect x="34.22" y="256.69" class="st0" width="2.12" height="1.98"/>
		<path class="st0" d="M51.46,251.99c0,1.03-0.42,1.54-1.22,1.54h-1.53c0.19-0.51,0.29-1.09,0.29-1.73v-3.73h-2.39v3.92
			c0,1.03-0.41,1.54-1.22,1.54h-1.52c0.19-0.51,0.29-1.09,0.29-1.73v-3.73h-2.42v3.82c0,0.46-0.03,0.75-0.1,0.89
			c-0.19,0.5-0.57,0.75-1.11,0.75h-1.44h-0.72h-2.06c0.18-0.53,0.27-1.09,0.27-1.73v-3.73h-2.42v3.82c0,1.09-0.39,1.64-1.19,1.64
			h-1.15H31.4h-0.81c-1.16,0-1.75-0.61-1.75-1.74v-5.4c-3.04,0-4.56,0-4.56,0.02c-2.26,0-3.54,1.64-3.54,4.19
			c0,2.36,1.31,4.14,3.37,4.14c1.18,0,2.01-0.36,2.43-1.03c0.55,1.41,1.5,2.11,2.88,2.11h1.99h0.43h6.55h0.72h11.23
			c0.86,0,1.62-0.31,2.29-0.91c0.84-0.76,1.25-1.8,1.25-3.13v-3.72h-2.41V251.99z M26.37,250.42c0,1.4-0.61,2.35-1.62,2.35
			c-0.96,0-1.64-1-1.64-2.19c0-1.34,0.72-2.41,1.7-2.41h1.56V250.42z"/>
		<path class="st0" d="M73.28,251.99c0,1.03-0.41,1.54-1.22,1.54h-1.53c0.19-0.51,0.3-1.09,0.3-1.73v-3.73h-2.4v3.92
			c0,1.03-0.41,1.54-1.22,1.54h-1.52c0.2-0.51,0.29-1.09,0.29-1.73v-3.73h-2.41v3.82c0,0.46-0.04,0.75-0.1,0.89
			c-0.19,0.5-0.57,0.75-1.12,0.75h-1.42h-0.7c-1.77,0-2.05-0.61-2.05-1.78v-6.97h-2.4V253c0,1.76,1.06,2.82,2.89,2.82h1.52h0.74
			h11.22c0.86,0,1.63-0.31,2.29-0.91c0.84-0.76,1.24-1.8,1.24-3.13v-3.72h-2.41V251.99z"/>
		<path class="st0" d="M83.89,251.79c0,1.14-0.41,1.73-1.21,1.74l-2.13-7.58h-2.53l2.16,7.58h-2.55v2.3h5.68
			c0.84,0,1.53-0.26,2.11-0.77c0.56-0.53,0.84-1.2,0.84-2.04v-8.21h-2.36V251.79z"/>
		<path class="st0" d="M80.67,244.05h-1.33c-0.15-0.05-0.24-0.22-0.24-0.48c0-0.34,0.13-0.51,0.39-0.51c0.19,0,0.31,0.12,0.38,0.36
			l0.77-0.36c-0.23-0.53-0.6-0.8-1.15-0.8c-0.73,0-1.28,0.6-1.28,1.37c0,0.13,0.02,0.29,0.07,0.44h-0.66v0.87h3.06V244.05z"/>
		<rect x="87.99" y="244.79" class="st0" width="2.4" height="11.04"/>
		<rect x="103.53" y="244.81" class="st0" width="2.14" height="1.97"/>
		<rect x="107.7" y="244.81" class="st0" width="2.12" height="1.97"/>
		<rect x="110.91" y="244.81" class="st0" width="2.12" height="1.97"/>
		<path class="st0" d="M146.78,249.53c-2.46,0-3.87,1.56-3.87,4h-1.81h-0.56h-0.98l0.03-0.89c-0.03-1.7-0.41-3.13-1.25-4.32
			c-1.04-1.51-3.06-2.68-4.86-2.84l-0.22,2.31c2.62,0.27,3.97,2.29,4,4.86l-0.03,0.87h-1.66c0.22-0.46,0.32-0.96,0.32-1.48
			c0-2.13-1.53-3.41-3.63-3.41c-2.14,0-3.62,1.33-3.62,3.41c0,0.53,0.1,1.02,0.32,1.48h-1.88h-0.58h-1.43c0-2.51-1.51-4-4-4
			c-2.48,0-3.89,1.54-3.89,4h-1.46h-0.46h-2.35c0.19-0.53,0.3-1.09,0.3-1.73v-3.73h-2.41v3.82c0,1.09-0.42,1.64-1.22,1.64h-1.22
			h-0.36h-2.44c0.19-0.53,0.28-1.09,0.28-1.73v-3.73h-2.41v3.82c0,1.09-0.41,1.64-1.22,1.64h-1.2h-0.37h-0.32
			c-1.76,0-2.06-0.61-2.06-1.78v-6.97h-2.4V253c0,1.76,1.06,2.82,2.9,2.82h1.88h0.37h6.99h0.36h6.9h0.46h2.15
			c0.72,0.97,1.81,1.47,3.26,1.47c1.42,0,2.5-0.5,3.2-1.47h2.16h0.58h13.46h0.56h2.51c0.71,0.97,1.8,1.47,3.26,1.47
			c2.4,0,3.94-1.61,3.94-3.9C150.81,251.05,149.25,249.53,146.78,249.53z M121.15,255.35c-1.01,0-1.6-0.82-1.6-1.97
			c0-1.11,0.58-1.93,1.46-1.93h0.18c1.01,0,1.52,0.68,1.52,2.03C122.71,254.63,122.12,255.35,121.15,255.35z M132.27,253.56
			c-0.77,0-1.31-0.69-1.31-1.53c0-0.84,0.48-1.45,1.31-1.45c0.84,0,1.34,0.61,1.34,1.45C133.61,252.88,133.04,253.56,132.27,253.56z
			 M146.87,255.35c-1.04,0-1.61-0.8-1.61-1.97c0-1.13,0.6-1.93,1.47-1.93h0.17c1.02,0,1.53,0.68,1.53,2.03
			C148.42,254.6,147.81,255.35,146.87,255.35z"/>
		<rect x="155.3" y="253.53" class="st0" width="2.11" height="2.28"/>
		<rect x="158.55" y="253.53" class="st0" width="2.1" height="2.28"/>
		<rect x="169.76" y="244.81" class="st0" width="2.12" height="1.97"/>
		<path class="st0" d="M173.83,252.63c0,2.22-1.12,3.81-2.98,3.81c-1.9,0-3.02-1.59-3.02-3.81v-4.57h-2.4v4.79
			c0,3.29,2.39,5.82,5.4,5.82c3.1,0,5.42-2.63,5.42-5.82v-4.79h-2.42V252.63z"/>
		<path class="st0" d="M202.72,251.86c0,1.11-0.41,1.68-1.21,1.68h-1.14h-0.39h-2.39c0.2-0.53,0.3-1.11,0.3-1.74v-3.72h-2.42v3.92
			c0,1.03-0.41,1.54-1.21,1.54h-1.53c0.19-0.51,0.29-1.09,0.29-1.73v-3.73h-2.4v3.92c0,1.03-0.41,1.54-1.21,1.54h-1.52
			c0.18-0.51,0.29-1.09,0.29-1.73v-3.73h-2.42v3.83c0,1.2-0.42,1.62-1.21,1.62h-1.42h-0.4h-0.3c-1.77,0-2.06-0.61-2.06-1.78v-6.97
			h-2.39V253c0,1.76,1.06,2.82,2.89,2.82h1.86h0.4h16.84h0.39h1.65c0.99,0,1.78-0.34,2.34-1.05c0.5-0.6,0.75-1.35,0.75-2.26v-4.45
			h-2.4V251.86z"/>
		<rect x="202.82" y="244.81" class="st0" width="2.13" height="1.97"/>
		<path class="st0" d="M213.12,251.79c0,1.14-0.4,1.73-1.22,1.74l-2.12-7.58h-2.53l2.15,7.58h-2.55v2.3h5.69
			c0.83,0,1.54-0.26,2.1-0.77c0.57-0.53,0.84-1.2,0.84-2.04v-8.21h-2.36V251.79z"/>
		<rect x="217.24" y="244.79" class="st0" width="2.4" height="11.04"/>
		<rect x="226.38" y="242.82" class="st0" width="2.13" height="1.99"/>
		<rect x="229.61" y="242.82" class="st0" width="2.12" height="1.99"/>
		<rect x="234.74" y="256.69" class="st0" width="2.12" height="1.98"/>
		<rect x="237.96" y="256.69" class="st0" width="2.11" height="1.98"/>
		<rect x="256.53" y="244.81" class="st0" width="2.14" height="1.97"/>
		<rect x="260.65" y="244.81" class="st0" width="2.13" height="1.97"/>
		<rect x="263.87" y="244.81" class="st0" width="2.14" height="1.97"/>
		<path class="st0" d="M263.77,248.07v3.78c0,1.11-0.41,1.68-1.21,1.68h-1.18h-0.34h-2.46c0.19-0.53,0.3-1.09,0.3-1.73v-3.73h-2.42
			v3.82c0,1.09-0.41,1.64-1.22,1.64h-1.04h-0.53h-1.47c0-2.51-1.5-4-4.01-4c-2.48,0-3.88,1.54-3.88,4h-1.46h-0.46h-2.33
			c0.18-0.53,0.28-1.09,0.28-1.73v-3.73h-2.42v3.82c0,1.09-0.4,1.64-1.2,1.64h-1.14h-0.43h-0.81c-1.16,0-1.75-0.61-1.75-1.74v-5.4
			c-3.04,0-4.56,0-4.56,0.02c-2.26,0-3.54,1.64-3.54,4.19c0,2.36,1.32,4.14,3.37,4.14c1.17,0,2-0.36,2.43-1.03
			c0.54,1.41,1.5,2.11,2.87,2.11h1.99h0.43h6.81h0.46h2.16c0.72,0.97,1.8,1.47,3.25,1.47c1.42,0,2.5-0.5,3.2-1.47h2.21h0.53h6.84
			h0.34h1.7c0.99,0,1.78-0.34,2.34-1.05c0.5-0.6,0.75-1.35,0.75-2.26v-4.45H263.77z M230.12,250.42c0,1.4-0.62,2.35-1.62,2.35
			c-0.96,0-1.65-1-1.65-2.19c0-1.34,0.72-2.41,1.7-2.41h1.57V250.42z M248.24,255.35c-1.01,0-1.59-0.82-1.59-1.97
			c0-1.11,0.58-1.93,1.45-1.93h0.17c1.01,0,1.53,0.68,1.53,2.03C249.8,254.63,249.22,255.35,248.24,255.35z"/>
	</g>
</g>
<g>
	<g>
		<g>
			<path class="st0" d="M222.41,44.8c-5.48,0.01-9.95-4.45-9.95-9.93c0-5.48,4.45-9.94,9.93-9.95c5.48,0,9.95,4.45,9.95,9.93
				C232.35,40.33,227.9,44.8,222.41,44.8L222.41,44.8z M222.39,26.15c-4.8,0.01-8.7,3.91-8.7,8.71c0,4.8,3.91,8.71,8.71,8.7
				c4.8,0,8.71-3.91,8.7-8.71C231.11,30.05,227.2,26.15,222.39,26.15L222.39,26.15z"/>
		</g>
		<g>
			<g>
				<path class="st0" d="M217.84,40.48l0-11.24l5.06,0c0.68,0,1.26,0.06,1.72,0.18c0.46,0.13,0.84,0.32,1.13,0.58
					c0.28,0.26,0.5,0.6,0.62,1.01c0.13,0.41,0.2,0.9,0.2,1.47c0,0.27-0.02,0.51-0.06,0.71c-0.04,0.2-0.1,0.41-0.19,0.59
					c-0.1,0.19-0.23,0.37-0.4,0.55c-0.16,0.18-0.37,0.37-0.64,0.58c0.25,0.17,0.44,0.33,0.58,0.47c0.14,0.15,0.24,0.31,0.31,0.51
					c0.08,0.19,0.12,0.43,0.15,0.71c0.02,0.28,0.05,0.63,0.08,1.07c0.02,0.37,0.03,0.67,0.05,0.9c0.01,0.24,0.04,0.42,0.08,0.57
					c0.04,0.15,0.09,0.27,0.16,0.37c0.06,0.1,0.16,0.19,0.29,0.28v0.67l-2.01,0c-0.28-0.6-0.41-1.28-0.41-2.02
					c0-0.9-0.03-1.51-0.11-1.81h0.02c-0.2-0.54-0.69-0.81-1.47-0.81l-3.31,0v4.64L217.84,40.48z M219.68,30.9v3.27h3.27
					c0.55,0,0.99-0.13,1.3-0.41c0.33-0.27,0.49-0.67,0.49-1.2v-0.16c0-1.01-0.6-1.5-1.79-1.5H219.68z"/>
			</g>
		</g>
	</g>
</g>
<path class="st0" d="M212.71,258.13h-1.34c-0.15-0.05-0.24-0.22-0.24-0.48c0-0.34,0.14-0.51,0.39-0.51c0.19,0,0.31,0.12,0.37,0.36
	l0.77-0.36c-0.23-0.53-0.6-0.81-1.15-0.81c-0.73,0-1.28,0.6-1.28,1.37c0,0.14,0.01,0.3,0.07,0.45h-0.66v0.88h3.06V258.13z"/>
</svg>
