<?xml version="1.0" encoding="UTF-8"?>
<svg version="1.1" xmlns="http://www.w3.org/2000/svg" width="255" height="71">
<path d="M0 0 C1.25840698 -0.02235718 1.25840698 -0.02235718 2.54223633 -0.04516602 C11.22861659 0.09860034 17.92141831 3.02358161 24.25 9 C25.05050781 9.74121094 25.85101563 10.48242188 26.67578125 11.24609375 C32.9375 17.65921848 32.9375 17.65921848 32.9375 20.5625 C31.9475 20.5625 30.9575 20.5625 29.9375 20.5625 C28.61328125 19.171875 28.61328125 19.171875 27.25 17.3125 C23.21113447 12.33693998 18.16358855 9.86164446 11.9375 8.5625 C3.24390506 7.96294173 -4.06885419 9.54211055 -10.9375 15.125 C-17.02793969 21.04296706 -19.22206353 27.21207682 -19.5 35.625 C-19.18675359 43.5066839 -17.44966496 50.17980178 -11.8984375 55.98828125 C-4.75638248 62.11221353 2.14790225 63.32675238 11.44140625 62.98046875 C17.93143011 62.20456646 21.74894518 59.92280373 26.25 55.3125 C27.136875 54.405 28.02375 53.4975 28.9375 52.5625 C29.9275 52.5625 30.9175 52.5625 31.9375 52.5625 C28.30584152 60.83669096 20.42169492 66.86752749 12.3671875 70.515625 C2.84958152 73.42077125 -6.756715 72.96841743 -15.6875 68.5 C-24.51590862 63.4537504 -31.71573798 56.77032937 -34.60229492 46.67456055 C-36.76078998 36.7683851 -36.13637467 25.93726584 -30.95703125 17.1796875 C-22.62271676 5.66630459 -14.19092956 0.18848445 0 0 Z " fill="#E30613" transform="translate(35.0625,-0.5625)"/>
<path d="M0 0 C8 0 16 0 24 0 C24.33 0.66 24.66 1.32 25 2 C25.66 1.34 26.32 0.68 27 0 C29.43017578 -0.22705078 29.43017578 -0.22705078 32.4453125 -0.1953125 C34.05986328 -0.18564453 34.05986328 -0.18564453 35.70703125 -0.17578125 C36.83496094 -0.15902344 37.96289062 -0.14226563 39.125 -0.125 C40.82849609 -0.11146484 40.82849609 -0.11146484 42.56640625 -0.09765625 C45.37781299 -0.07403098 48.18880298 -0.04109013 51 0 C51.495 2.97 51.495 2.97 52 6 C52.66 4.02 53.32 2.04 54 0 C55.32 0 56.64 0 58 0 C58.99 2.64 59.98 5.28 61 8 C61.33 5.36 61.66 2.72 62 0 C62.556875 0.185625 63.11375 0.37125 63.6875 0.5625 C66.45038789 1.23490479 66.45038789 1.23490479 71 0 C71 4.29 71 8.58 71 13 C69.68 13 68.36 13 67 13 C66.505 12.01 66.505 12.01 66 11 C65.67 11.66 65.34 12.32 65 13 C62.69 13 60.38 13 58 13 C58 12.34 58 11.68 58 11 C56.68 11 55.36 11 54 11 C54 11.66 54 12.32 54 13 C52.02 13 50.04 13 48 13 C48 9.7 48 6.4 48 3 C47.01 3 46.02 3 45 3 C45 6.3 45 9.6 45 13 C44.01 13 43.02 13 42 13 C40.63047327 10.26094655 40.87378639 8.02912668 41 5 C41.33 4.34 41.66 3.68 42 3 C41.01 3 40.02 3 39 3 C38.9175 3.78375 38.835 4.5675 38.75 5.375 C38 8 38 8 35.9375 9.3125 C34.9784375 9.6528125 34.9784375 9.6528125 34 10 C34 10.99 34 11.98 34 13 C32.68 13 31.36 13 30 13 C29.67 10.03 29.34 7.06 29 4 C28.34 6.97 27.68 9.94 27 13 C25.68 13 24.36 13 23 13 C22.34 10.03 21.68 7.06 21 4 C20.855625 5.299375 20.71125 6.59875 20.5625 7.9375 C20.125 11.875 20.125 11.875 19 13 C16.66705225 13.04241723 14.33297433 13.04092937 12 13 C11.34 13 10.68 13 10 13 C6.66666667 13 3.33333333 13 0 13 C0 8.71 0 4.42 0 0 Z M4 3 C4 3.66 4 4.32 4 5 C5.65 5 7.3 5 9 5 C9 5.99 9 6.98 9 8 C7.35 8 5.7 8 4 8 C4 8.66 4 9.32 4 10 C5.98 10 7.96 10 10 10 C10 7.69 10 5.38 10 3 C8.02 3 6.04 3 4 3 Z M14 3 C13.67 4.32 13.34 5.64 13 7 C14.32 6.01 15.64 5.02 17 4 C16.01 3.67 15.02 3.34 14 3 Z M33 3 C33 3.66 33 4.32 33 5 C33.99 4.67 34.98 4.34 36 4 C35.01 3.67 34.02 3.34 33 3 Z M14 8 C14 8.66 14 9.32 14 10 C14.66 9.67 15.32 9.34 16 9 C15.34 8.67 14.68 8.34 14 8 Z " fill="#414141" transform="translate(70,42)"/>
<path d="M0 0 C1.32 0.66 2.64 1.32 4 2 C4.33 1.67 4.66 1.34 5 1 C7.67538514 0.95753357 10.32709386 0.95080541 13 1 C13.66 1 14.32 1 15 1 C18.66666667 1 22.33333333 1 26 1 C26.99 0.95875 27.98 0.9175 29 0.875 C32 1 32 1 34 3 C34.66 2.34 35.32 1.68 36 1 C38.5 0.75 38.5 0.75 41 1 C43 3 43 3 43 6 C42.01 6 41.02 6 40 6 C40 5.34 40 4.68 40 4 C39.34 4.33 38.68 4.66 38 5 C38.495 7.475 38.495 7.475 39 10 C39.33 9.34 39.66 8.68 40 8 C40.99 8.33 41.98 8.66 43 9 C42.67 10.65 42.34 12.3 42 14 C39.125 14.125 39.125 14.125 36 14 C35.34 13.34 34.68 12.68 34 12 C33.34 12.66 32.68 13.32 32 14 C29 14.125 29 14.125 26 14 C24.41627641 14 22.83256013 14.04477397 21.25 14.10546875 C20.1775 14.13253906 19.105 14.15960938 18 14.1875 C16.9275 14.22230469 15.855 14.25710937 14.75 14.29296875 C13.8425 14.19628906 12.935 14.09960938 12 14 C11.34 13.01 10.68 12.02 10 11 C9.67 11.99 9.34 12.98 9 14 C8.195625 13.814375 7.39125 13.62875 6.5625 13.4375 C5.716875 13.293125 4.87125 13.14875 4 13 C3.67 13.33 3.34 13.66 3 14 C-0.5 13.6875 -0.5 13.6875 -4 13 C-5.44430855 10.11138291 -5.37688506 8.20352299 -5 5 C-2.5 2.125 -2.5 2.125 0 0 Z M15 3 C16 6 16 6 16 6 Z M-1 4 C-1 5.98 -1 7.96 -1 10 C2.05270463 10.15811388 2.05270463 10.15811388 5 9 C5 8.01 5 7.02 5 6 C3.02 5.34 1.04 4.68 -1 4 Z M9 4 C9 4.66 9 5.32 9 6 C9.66 6 10.32 6 11 6 C11 5.34 11 4.68 11 4 C10.34 4 9.68 4 9 4 Z M19 4 C19 4.66 19 5.32 19 6 C20.65 6 22.3 6 24 6 C24 5.34 24 4.68 24 4 C22.35 4 20.7 4 19 4 Z M28 4 C28.33 4.66 28.66 5.32 29 6 C29.66 5.67 30.32 5.34 31 5 C30.01 4.67 29.02 4.34 28 4 Z M24 6 C24 6.99 24 7.98 24 9 C24.99 8.67 25.98 8.34 27 8 C26.34 8 25.68 8 25 8 C24.67 7.34 24.34 6.68 24 6 Z M14 7 C13.67 7.66 13.34 8.32 13 9 C13.66 9.66 14.32 10.32 15 11 C14.67 9.68 14.34 8.36 14 7 Z M33 7 C34 9 34 9 34 9 Z M19 9 C19 9.66 19 10.32 19 11 C20.65 11 22.3 11 24 11 C24 10.34 24 9.68 24 9 C22.35 9 20.7 9 19 9 Z M27 9 C27.33 9.66 27.66 10.32 28 11 C28.66 10.67 29.32 10.34 30 10 C29.01 9.67 28.02 9.34 27 9 Z " fill="#414141" transform="translate(183,41)"/>
<path d="M0 0 C0.99 0 1.98 0 3 0 C3.08121924 1.60332791 3.13929134 3.20784026 3.1875 4.8125 C3.23970703 6.15248047 3.23970703 6.15248047 3.29296875 7.51953125 C3 10 3 10 1.63671875 11.77734375 C-0.57507858 13.42959331 -2.26022487 13.73906903 -5 14 C-5.75394043 13.8450708 -6.50788086 13.6901416 -7.28466797 13.53051758 C-12.49901656 12.51174582 -17.82809384 12.73072829 -23.125 12.6875 C-24.91357422 12.64399414 -24.91357422 12.64399414 -26.73828125 12.59960938 C-27.87910156 12.59123047 -29.01992187 12.58285156 -30.1953125 12.57421875 C-31.75789795 12.55234497 -31.75789795 12.55234497 -33.35205078 12.5300293 C-36.14839488 12.75017546 -36.14839488 12.75017546 -37.86279297 15.02661133 C-38.23807129 15.67782959 -38.61334961 16.32904785 -39 17 C-43.75 16.125 -43.75 16.125 -46 15 C-46.969375 15.185625 -47.93875 15.37125 -48.9375 15.5625 C-52 16 -52 16 -55 14 C-55.25660094 10.92078868 -55.39431504 8.78863007 -54 6 C-53.01 6 -52.02 6 -51 6 C-51 7.65 -51 9.3 -51 11 C-49.77683537 9.91221486 -49.77683537 9.91221486 -49.0625 7.5625 C-48 5 -48 5 -46 3 C-44.68 3 -43.36 3 -42 3 C-42 4.32 -42 5.64 -42 7 C-42.99 7 -43.98 7 -45 7 C-44.34 7.33 -43.68 7.66 -43 8 C-43 9.32 -43 10.64 -43 12 C-41.68 11.67 -40.36 11.34 -39 11 C-39.33 9.68 -39.66 8.36 -40 7 C-36.68757696 7 -33.54069789 7.1866002 -30.25 7.5 C-29.26515625 7.5928125 -28.2803125 7.685625 -27.265625 7.78125 C-26.51796875 7.8534375 -25.7703125 7.925625 -25 8 C-25 7.34 -25 6.68 -25 6 C-24.01 5.67 -23.02 5.34 -22 5 C-22 5.99 -22 6.98 -22 8 C-20.948125 7.2265625 -20.948125 7.2265625 -19.875 6.4375 C-16.36988566 4.68494283 -14.7072941 4.90466311 -11 6 C-10.505 6.99 -10.505 6.99 -10 8 C-9.38125 7.2265625 -9.38125 7.2265625 -8.75 6.4375 C-8.1725 5.963125 -7.595 5.48875 -7 5 C-4.8125 5.3125 -4.8125 5.3125 -3 6 C-3 6.66 -3 7.32 -3 8 C-2.34 8 -1.68 8 -1 8 C-1.020625 6.865625 -1.04125 5.73125 -1.0625 4.5625 C-1 1 -1 1 0 0 Z " fill="#080808" transform="translate(126,15)"/>
<path d="M0 0 C4.32400207 0.02062322 4.32400207 0.02062322 6.6875 2.3125 C7.1515625 3.3025 7.1515625 3.3025 7.625 4.3125 C7.955 2.9925 8.285 1.6725 8.625 0.3125 C9.615 0.3125 10.605 0.3125 11.625 0.3125 C11.625 2.9525 11.625 5.5925 11.625 8.3125 C15.915 8.3125 20.205 8.3125 24.625 8.3125 C25.285 6.9925 25.945 5.6725 26.625 4.3125 C27.615 3.9825 28.605 3.6525 29.625 3.3125 C30.12 4.7975 30.12 4.7975 30.625 6.3125 C30.955 4.3325 31.285 2.3525 31.625 0.3125 C32.615 0.3125 33.605 0.3125 34.625 0.3125 C34.91532807 3.69320906 35.07020367 6.94167218 34.625 10.3125 C32.1875 12.8125 32.1875 12.8125 29.625 14.3125 C29.295 14.9725 28.965 15.6325 28.625 16.3125 C26.15 15.8175 26.15 15.8175 23.625 15.3125 C23.625 14.6525 23.625 13.9925 23.625 13.3125 C22.64917969 13.3125 21.67335937 13.3125 20.66796875 13.3125 C15.98697917 13.3125 11.30598958 13.3125 6.625 13.3125 C1.90736311 13.78045995 1.90736311 13.78045995 -2.5 15.375 C-4.93645163 16.59322581 -6.68632052 16.59551889 -9.375 16.3125 C-10.035 15.6525 -10.695 14.9925 -11.375 14.3125 C-11.25 11.3125 -11.25 11.3125 -10.375 8.3125 C-8.3125 6.9375 -8.3125 6.9375 -6.375 6.3125 C-7.035 8.2925 -7.695 10.2725 -8.375 12.3125 C-6.725 12.3125 -5.075 12.3125 -3.375 12.3125 C-3.53097656 11.53003906 -3.68695313 10.74757813 -3.84765625 9.94140625 C-4.13962891 8.42353516 -4.13962891 8.42353516 -4.4375 6.875 C-4.63472656 5.86566406 -4.83195313 4.85632813 -5.03515625 3.81640625 C-5.14730469 2.99011719 -5.25945312 2.16382812 -5.375 1.3125 C-3.79602167 -0.26647833 -2.18137428 0.06706491 0 0 Z M-0.375 4.3125 C-1.80588528 7.17427057 -0.97491697 9.24625773 -0.375 12.3125 C1.935 11.3225 4.245 10.3325 6.625 9.3125 C5.00160195 7.60365995 3.33180947 5.93803283 1.625 4.3125 C0.965 4.3125 0.305 4.3125 -0.375 4.3125 Z " fill="#3F3F3F" transform="translate(215.375,14.6875)"/>
<path d="M0 0 C1.36511719 0.43119141 1.36511719 0.43119141 2.7578125 0.87109375 C3.45648438 1.09925781 4.15515625 1.32742187 4.875 1.5625 C4.545 2.8825 4.215 4.2025 3.875 5.5625 C-5.5092538 8.03204047 -15.55357631 9.54757019 -25.125 7.5625 C-27.16833907 7.57311475 -29.2123848 7.65929585 -31.25 7.8125 C-32.80074219 7.91304687 -32.80074219 7.91304687 -34.3828125 8.015625 C-37.33545029 8.60447014 -38.30510713 9.22801674 -40.125 11.5625 C-42.435 10.9025 -44.745 10.2425 -47.125 9.5625 C-47.125 8.5725 -47.125 7.5825 -47.125 6.5625 C-45.145 6.5625 -43.165 6.5625 -41.125 6.5625 C-41.125 5.5725 -41.125 4.5825 -41.125 3.5625 C-40.795 2.5725 -40.465 1.5825 -40.125 0.5625 C-39.135 0.5625 -38.145 0.5625 -37.125 0.5625 C-37.125 1.2225 -37.125 1.8825 -37.125 2.5625 C-34.99936897 2.44873383 -32.8744739 2.32114369 -30.75 2.1875 C-29.56664062 2.11789063 -28.38328125 2.04828125 -27.1640625 1.9765625 C-24.01937681 1.86032654 -24.01937681 1.86032654 -22.125 -0.4375 C-21.135 -0.4375 -20.145 -0.4375 -19.125 -0.4375 C-18.795 0.2225 -18.465 0.8825 -18.125 1.5625 C-15.76900765 2.03001788 -15.76900765 2.03001788 -13.0625 2.1875 C-11.68384766 2.29964844 -11.68384766 2.29964844 -10.27734375 2.4140625 C-9.56707031 2.46304687 -8.85679687 2.51203125 -8.125 2.5625 C-7.795 1.5725 -7.465 0.5825 -7.125 -0.4375 C-4.30685434 -1.84657283 -2.95222796 -0.94622691 0 0 Z " fill="#585858" transform="translate(180.125,20.4375)"/>
<path d="M0 0 C9.9609375 -0.29296875 9.9609375 -0.29296875 13 0 C13.66 0.99 14.32 1.98 15 3 C15.33 2.01 15.66 1.02 16 0 C20.29 0 24.58 0 29 0 C29 0.99 29 1.98 29 3 C28.01 3 27.02 3 26 3 C26 6.3 26 9.6 26 13 C24.68 13 23.36 13 22 13 C22 9.7 22 6.4 22 3 C21.01 3 20.02 3 19 3 C19 6.3 19 9.6 19 13 C17.68 12.67 16.36 12.34 15 12 C14.67 12 14.34 12 14 12 C14 12.33 14 12.66 14 13 C9.71 13 5.42 13 1 13 C0.67 8.71 0.34 4.42 0 0 Z M4 3 C4 3.66 4 4.32 4 5 C5.65 5 7.3 5 9 5 C9 5.99 9 6.98 9 8 C7.35 8 5.7 8 4 8 C4 8.66 4 9.32 4 10 C5.98 10 7.96 10 10 10 C10 7.69 10 5.38 10 3 C8.02 3 6.04 3 4 3 Z " fill="#414141" transform="translate(226,42)"/>
<path d="M0 0 C1.32 0.66 2.64 1.32 4 2 C4.33 1.67 4.66 1.34 5 1 C10.22649375 0.49421028 10.22649375 0.49421028 13 1 C15.0625 3.3125 15.0625 3.3125 16 6 C15.67 6.99 15.34 7.98 15 9 C15.33 9.99 15.66 10.98 16 12 C16.66 12 17.32 12 18 12 C18.33 11.01 18.66 10.02 19 9 C19 9.66 19 10.32 19 11 C20.65 11 22.3 11 24 11 C24 10.34 24 9.68 24 9 C25.32 9.33 26.64 9.66 28 10 C27.67 10.66 27.34 11.32 27 12 C27.99 12.66 28.98 13.32 30 14 C29.195625 13.814375 28.39125 13.62875 27.5625 13.4375 C26.2940625 13.2209375 26.2940625 13.2209375 25 13 C24.67 13.33 24.34 13.66 24 14 C22.02486333 14.15126231 20.04321865 14.22173766 18.0625 14.25 C16.98097656 14.27578125 15.89945313 14.3015625 14.78515625 14.328125 C13.86605469 14.21984375 12.94695312 14.1115625 12 14 C11.34 13.01 10.68 12.02 10 11 C9.67 11.99 9.34 12.98 9 14 C8.195625 13.814375 7.39125 13.62875 6.5625 13.4375 C5.716875 13.293125 4.87125 13.14875 4 13 C3.67 13.33 3.34 13.66 3 14 C-0.5 13.6875 -0.5 13.6875 -4 13 C-5.44430855 10.11138291 -5.37688506 8.20352299 -5 5 C-2.5 2.125 -2.5 2.125 0 0 Z M-1 4 C-1 5.98 -1 7.96 -1 10 C2.05270463 10.15811388 2.05270463 10.15811388 5 9 C5 8.01 5 7.02 5 6 C3.02 5.34 1.04 4.68 -1 4 Z M9 4 C9 4.66 9 5.32 9 6 C9.66 6 10.32 6 11 6 C11 5.34 11 4.68 11 4 C10.34 4 9.68 4 9 4 Z " fill="#444444" transform="translate(183,41)"/>
<path d="M0 0 C6.33333333 0 12.66666667 0 19 0 C19 0.99 19 1.98 19 3 C17.35 3 15.7 3 14 3 C14 3.66 14 4.32 14 5 C15.65 5 17.3 5 19 5 C19 5.99 19 6.98 19 8 C17.35 8 15.7 8 14 8 C14 8.66 14 9.32 14 10 C15.65 10 17.3 10 19 10 C19 10.99 19 11.98 19 13 C17.04233719 13.08082094 15.08373272 13.13910778 13.125 13.1875 C11.48917969 13.23970703 11.48917969 13.23970703 9.8203125 13.29296875 C8.88960937 13.19628906 7.95890625 13.09960938 7 13 C6.34 12.01 5.68 11.02 5 10 C4.67 10.99 4.34 11.98 4 13 C2.68 13 1.36 13 0 13 C0 8.71 0 4.42 0 0 Z M4 3 C4 3.66 4 4.32 4 5 C4.66 5 5.32 5 6 5 C6 4.34 6 3.68 6 3 C5.34 3 4.68 3 4 3 Z M9 6 C8.67 6.66 8.34 7.32 8 8 C8.66 8.66 9.32 9.32 10 10 C9.67 8.68 9.34 7.36 9 6 Z " fill="#4D4D4D" transform="translate(145,42)"/>
<path d="M0 0 C0.99 0 1.98 0 3 0 C3.29032807 3.38070906 3.44520367 6.62917218 3 10 C0.5625 12.5 0.5625 12.5 -2 14 C-2.33 14.66 -2.66 15.32 -3 16 C-5.475 15.505 -5.475 15.505 -8 15 C-8 14.34 -8 13.68 -8 13 C-12.62 13 -17.24 13 -22 13 C-22 12.01 -22 11.02 -22 10 C-18.47320901 7.64880601 -16.97120515 7.78556548 -12.8125 7.875 C-11.72582031 7.89304687 -10.63914063 7.91109375 -9.51953125 7.9296875 C-8.27236328 7.96449219 -8.27236328 7.96449219 -7 8 C-6.731875 7.360625 -6.46375 6.72125 -6.1875 6.0625 C-5 4 -5 4 -2 3 C-1.67 3.99 -1.34 4.98 -1 6 C-0.67 4.02 -0.34 2.04 0 0 Z " fill="#494949" transform="translate(247,15)"/>
<path d="M0 0 C1.32 0 2.64 0 4 0 C4 1.32 4 2.64 4 4 C3.01 4 2.02 4 1 4 C1.66 4.33 2.32 4.66 3 5 C3 6.32 3 7.64 3 9 C5.16874252 8.49396008 6.99967627 8.00016187 9 7 C9.33 7.99 9.66 8.98 10 10 C8.5625 12.1875 8.5625 12.1875 7 14 C2.25 13.125 2.25 13.125 0 12 C-0.969375 12.185625 -1.93875 12.37125 -2.9375 12.5625 C-6 13 -6 13 -9 11 C-9.25660094 7.92078868 -9.39431504 5.78863007 -8 3 C-7.01 3 -6.02 3 -5 3 C-5 4.65 -5 6.3 -5 8 C-3.77683537 6.91221486 -3.77683537 6.91221486 -3.0625 4.5625 C-2 2 -2 2 0 0 Z " fill="#4F4F4F" transform="translate(80,18)"/>
<path d="M0 0 C1.36511719 0.43119141 1.36511719 0.43119141 2.7578125 0.87109375 C3.45648438 1.09925781 4.15515625 1.32742187 4.875 1.5625 C4.545 2.8825 4.215 4.2025 3.875 5.5625 C-5.46093022 8.01932374 -15.60586781 9.6325584 -25.125 7.5625 C-27.73047504 7.53515618 -30.31451851 7.62507566 -32.91796875 7.72265625 C-35.125 7.5625 -35.125 7.5625 -37.125 5.5625 C-35.99964844 5.57410156 -34.87429687 5.58570313 -33.71484375 5.59765625 C-23.79778878 5.66711253 -14.01046014 5.37899818 -4.125 4.5625 C-5.445 4.2325 -6.765 3.9025 -8.125 3.5625 C-7.75 1.625 -7.75 1.625 -7.125 -0.4375 C-4.30685434 -1.84657283 -2.95222796 -0.94622691 0 0 Z " fill="#6A6A6A" transform="translate(180.125,20.4375)"/>
<path d="M0 0 C0.99 0 1.98 0 3 0 C3.08121924 1.60332791 3.13929134 3.20784026 3.1875 4.8125 C3.23970703 6.15248047 3.23970703 6.15248047 3.29296875 7.51953125 C3 10 3 10 1.63671875 11.77734375 C-0.57507858 13.42959331 -2.26022487 13.73906903 -5 14 C-6.14118286 13.76325562 -6.14118286 13.76325562 -7.30541992 13.52172852 C-10.18588445 12.96400878 -12.80618114 12.88666407 -15.73828125 12.90234375 C-17.33833008 12.90717773 -17.33833008 12.90717773 -18.97070312 12.91210938 C-20.07349609 12.92048828 -21.17628906 12.92886719 -22.3125 12.9375 C-23.99569336 12.94426758 -23.99569336 12.94426758 -25.71289062 12.95117188 C-28.4753151 12.96292687 -31.23762998 12.97935923 -34 13 C-34 12.34 -34 11.68 -34 11 C-23.77 11 -13.54 11 -3 11 C-3.33 9.68 -3.66 8.36 -4 7 C-5.65 7.33 -7.3 7.66 -9 8 C-8.34 7.01 -7.68 6.02 -7 5 C-5.68 5.33 -4.36 5.66 -3 6 C-3 6.66 -3 7.32 -3 8 C-2.34 8 -1.68 8 -1 8 C-1.020625 6.865625 -1.04125 5.73125 -1.0625 4.5625 C-1 1 -1 1 0 0 Z " fill="#656565" transform="translate(126,15)"/>
<path d="M0 0 C2.475 0.495 2.475 0.495 5 1 C5 1.99 5 2.98 5 4 C5.99 4.33 6.98 4.66 8 5 C8.33 4.34 8.66 3.68 9 3 C10.32 3.33 11.64 3.66 13 4 C12.7834375 4.7734375 12.7834375 4.7734375 12.5625 5.5625 C11.91656033 8.19117821 11.91656033 8.19117821 11.5 11.6875 C11 15 11 15 10 16 C7.66702567 16.04092937 5.33294775 16.04241723 3 16 C3.875 12.125 3.875 12.125 5 11 C4.360625 10.67 3.72125 10.34 3.0625 10 C-0.0552764 6.97670168 0.27956936 4.26343276 0 0 Z " fill="#5C5C5C" transform="translate(184,12)"/>
<path d="M0 0 C3.3 0 6.6 0 10 0 C10 0.99 10 1.98 10 3 C8.02 3 6.04 3 4 3 C4 3.66 4 4.32 4 5 C5.65 5 7.3 5 9 5 C9 5.99 9 6.98 9 8 C7.35 8 5.7 8 4 8 C4 8.66 4 9.32 4 10 C5.98 10 7.96 10 10 10 C10 10.99 10 11.98 10 13 C6.7 13 3.4 13 0 13 C0 8.71 0 4.42 0 0 Z " fill="#2E2E2E" transform="translate(70,42)"/>
<path d="M0 0 C3.375 -0.125 3.375 -0.125 7 0 C9 2 9 2 9.265625 4.09375 C9.26046875 4.8878125 9.2553125 5.681875 9.25 6.5 C9.25515625 7.2940625 9.2603125 8.088125 9.265625 8.90625 C9 11 9 11 7 13 C3.375 13.125 3.375 13.125 0 13 C0 8.71 0 4.42 0 0 Z M3 3 C3 5.31 3 7.62 3 10 C3.66 9.67 4.32 9.34 5 9 C5 7.35 5 5.7 5 4 C4.34 3.67 3.68 3.34 3 3 Z " fill="#707070" transform="translate(165,42)"/>
<path d="M0 0 C2.375 0.5 2.375 0.5 4.375 2.5 C4.375 3.49 4.375 4.48 4.375 5.5 C3.385 5.5 2.395 5.5 1.375 5.5 C1.375 4.84 1.375 4.18 1.375 3.5 C0.385 3.995 0.385 3.995 -0.625 4.5 C-0.295 6.15 0.035 7.8 0.375 9.5 C0.705 8.84 1.035 8.18 1.375 7.5 C2.365 7.83 3.355 8.16 4.375 8.5 C4.045 10.15 3.715 11.8 3.375 13.5 C0.5 13.625 0.5 13.625 -2.625 13.5 C-3.285 12.84 -3.945 12.18 -4.625 11.5 C-5.615 12.16 -6.605 12.82 -7.625 13.5 C-7.18093791 7.94922387 -6.34764454 1.20907515 0 0 Z M-5.625 6.5 C-4.625 8.5 -4.625 8.5 -4.625 8.5 Z " fill="#4E4E4E" transform="translate(221.625,41.5)"/>
<path d="M0 0 C4.29 0 8.58 0 13 0 C13 0.99 13 1.98 13 3 C12.01 3 11.02 3 10 3 C10 6.3 10 9.6 10 13 C8.68 13 7.36 13 6 13 C6 9.7 6 6.4 6 3 C5.01 3 4.02 3 3 3 C3 6.3 3 9.6 3 13 C2.67 13 2.34 13 2 13 C1.814375 11.576875 1.814375 11.576875 1.625 10.125 C1.28312823 6.91332809 1.28312823 6.91332809 -1 5 C-0.67 3.35 -0.34 1.7 0 0 Z " fill="#515151" transform="translate(242,42)"/>
<path d="M0 0 C3.96 0 7.92 0 12 0 C12.66 1.65 13.32 3.3 14 5 C14.33 3.35 14.66 1.7 15 0 C15.33 0 15.66 0 16 0 C16 3.96 16 7.92 16 12 C15.01 11.67 14.02 11.34 13 11 C12.67 9.02 12.34 7.04 12 5 C11.34 5 10.68 5 10 5 C10 6.98 10 8.96 10 11 C9.34 10.67 8.68 10.34 8 10 C8 7.36 8 4.72 8 2 C5.69 2 3.38 2 1 2 C0.67 2.66 0.34 3.32 0 4 C0 2.68 0 1.36 0 0 Z " fill="#191919" transform="translate(228,43)"/>
<path d="M0 0 C2.33299825 0.03954234 4.66708189 0.04401732 7 0 C6.01 0.495 6.01 0.495 5 1 C5.33 1.99 5.66 2.98 6 4 C6.12781786 6.67394964 6.04391871 9.32095857 6 12 C5.01 12 4.02 12 3 12 C1.63047327 9.26094655 1.87378639 7.02912668 2 4 C2.33 3.34 2.66 2.68 3 2 C2.01 2 1.02 2 0 2 C-0.33 3.65 -0.66 5.3 -1 7 C-2.32 7.33 -3.64 7.66 -5 8 C-5.33 7.01 -5.66 6.02 -6 5 C-5.01 5 -4.02 5 -3 5 C-3 3.68 -3 2.36 -3 1 C-4.32 0.67 -5.64 0.34 -7 0 C-3.98968256 -0.93423645 -3.13349732 -1.04449911 0 0 Z " fill="#323232" transform="translate(109,43)"/>
<path d="M0 0 C3.125 -0.1875 3.125 -0.1875 6 0 C6 0.99 6 1.98 6 3 C4.68 3.33 3.36 3.66 2 4 C3.44754255 5.44754255 5.03962913 5.55733561 7 6 C7.042721 7.66611905 7.04063832 9.33382885 7 11 C6 12 6 12 3.625 12.25 C1 12 1 12 -0.8125 10.875 C-2.53501881 8.15523346 -2.32855599 6.15413751 -2 3 C-1.34 2.01 -0.68 1.02 0 0 Z M2 8 C2 8.66 2 9.32 2 10 C2.66 9.67 3.32 9.34 4 9 C3.34 8.67 2.68 8.34 2 8 Z " fill="#545454" transform="translate(82,42)"/>
<path d="M0 0 C1.32 0.66 2.64 1.32 4 2 C4 2.99 4 3.98 4 5 C2.35 4.67 0.7 4.34 -1 4 C-0.67 5.98 -0.34 7.96 0 10 C1.32 10.33 2.64 10.66 4 11 C3.67 11.99 3.34 12.98 3 14 C0.6568787 13.74438677 -1.67843403 13.40729228 -4 13 C-5.44430855 10.11138291 -5.37688506 8.20352299 -5 5 C-2.5 2.125 -2.5 2.125 0 0 Z " fill="#464646" transform="translate(183,41)"/>
<path d="M0 0 C2.31 0 4.62 0 7 0 C7 0.66 7 1.32 7 2 C5.68 2 4.36 2 3 2 C3 2.66 3 3.32 3 4 C4.65 4 6.3 4 8 4 C8 4.99 8 5.98 8 7 C6.35 7 4.7 7 3 7 C3 7.66 3 8.32 3 9 C4.65 9 6.3 9 8 9 C8 9.99 8 10.98 8 12 C5.36 12 2.72 12 0 12 C0 8.04 0 4.08 0 0 Z " fill="#272727" transform="translate(156,43)"/>
<path d="M0 0 C1.32 0 2.64 0 4 0 C4 4.29 4 8.58 4 13 C2.68 13 1.36 13 0 13 C-0.33 12.34 -0.66 11.68 -1 11 C-1.66 11.66 -2.32 12.32 -3 13 C-3 10.69 -3 8.38 -3 6 C-2.34 6 -1.68 6 -1 6 C-0.67 4.02 -0.34 2.04 0 0 Z " fill="#6D6D6D" transform="translate(137,42)"/>
<path d="M0 0 C0.33 0.66 0.66 1.32 1 2 C1.66 2 2.32 2 3 2 C3.33 1.34 3.66 0.68 4 0 C4.66 0 5.32 0 6 0 C6.65613281 -0.02320312 7.31226563 -0.04640625 7.98828125 -0.0703125 C12.47043407 -0.17577492 15.9160876 -0.10782576 20 2 C20 2.33 20 2.66 20 3 C8.31514365 3.76532392 -3.29045225 4.13339991 -15 4 C-14.67 3.01 -14.34 2.02 -14 1 C-12.73542969 1.01740234 -12.73542969 1.01740234 -11.4453125 1.03515625 C-10.34960938 1.04417969 -9.25390625 1.05320312 -8.125 1.0625 C-6.48917969 1.07990234 -6.48917969 1.07990234 -4.8203125 1.09765625 C-2.04822454 1.19744303 -2.04822454 1.19744303 0 0 Z " fill="#060606" transform="translate(157,23)"/>
<path d="M0 0 C4.29 0 8.58 0 13 0 C13.33 4.29 13.66 8.58 14 13 C12.68 13 11.36 13 10 13 C10 9.7 10 6.4 10 3 C9.01 3 8.02 3 7 3 C6.67 3.66 6.34 4.32 6 5 C6 4.01 6 3.02 6 2 C3.03 1.505 3.03 1.505 0 1 C0 0.67 0 0.34 0 0 Z " fill="#515151" transform="translate(108,42)"/>
<path d="M0 0 C0.66 0 1.32 0 2 0 C1.34 1.98 0.68 3.96 0 6 C1.65 6 3.3 6 5 6 C5 5.34 5 4.68 5 4 C5.66 4 6.32 4 7 4 C7.33 2.68 7.66 1.36 8 0 C8.32523926 3.57763189 8.42956587 5.39542581 6.3125 8.375 C3.57772115 10.29673649 2.27359086 10.51688277 -1 10 C-1.66 9.34 -2.32 8.68 -3 8 C-2.54545455 2.54545455 -2.54545455 2.54545455 0 0 Z " fill="#3C3C3C" transform="translate(207,21)"/>
<path d="M0 0 C2.31 0 4.62 0 7 0 C7 0.66 7 1.32 7 2 C5.68 2 4.36 2 3 2 C3 2.66 3 3.32 3 4 C4.65 4 6.3 4 8 4 C8 4.99 8 5.98 8 7 C6.02 7 4.04 7 2 7 C2 7.99 2 8.98 2 10 C3.65 10 5.3 10 7 10 C7 10.33 7 10.66 7 11 C4.69 11 2.38 11 0 11 C-1.37432457 7.18243176 -0.67975039 3.92744671 0 0 Z " fill="#282828" transform="translate(199,43)"/>
<path d="M0 0 C1.36511719 0.43119141 1.36511719 0.43119141 2.7578125 0.87109375 C3.45648438 1.09925781 4.15515625 1.32742187 4.875 1.5625 C4.545 2.8825 4.215 4.2025 3.875 5.5625 C-4.69642857 4.5625 -4.69642857 4.5625 -8.125 3.5625 C-7.75 1.625 -7.75 1.625 -7.125 -0.4375 C-4.30685434 -1.84657283 -2.95222796 -0.94622691 0 0 Z " fill="#151515" transform="translate(180.125,20.4375)"/>
<path d="M0 0 C0.66 0.33 1.32 0.66 2 1 C1.85957123 2.64630328 1.71250671 4.29204179 1.5625 5.9375 C1.48128906 6.85402344 1.40007812 7.77054688 1.31640625 8.71484375 C1 11 1 11 0 12 C-2.33297433 12.04092937 -4.66705225 12.04241723 -7 12 C-6.67 10.68 -6.34 9.36 -6 8 C-4.35 7.67 -2.7 7.34 -1 7 C-1.33 6.01 -1.66 5.02 -2 4 C-1.0625 1.8125 -1.0625 1.8125 0 0 Z " fill="#2F2F2F" transform="translate(194,16)"/>
<path d="M0 0 C1.22589844 0.01353516 1.22589844 0.01353516 2.4765625 0.02734375 C3.41628906 0.04474609 3.41628906 0.04474609 4.375 0.0625 C4.375 0.7225 4.375 1.3825 4.375 2.0625 C5.365 2.0625 6.355 2.0625 7.375 2.0625 C7.375 2.7225 7.375 3.3825 7.375 4.0625 C2.755 4.0625 -1.865 4.0625 -6.625 4.0625 C-6.625 3.0725 -6.625 2.0825 -6.625 1.0625 C-4.21954362 -0.14022819 -2.67503047 -0.03821472 0 0 Z " fill="#171717" transform="translate(232.625,22.9375)"/>
<path d="M0 0 C1.98 0 3.96 0 6 0 C8 2 8 2 8.125 5.125 C8.08375 6.07375 8.0425 7.0225 8 8 C7.67 8 7.34 8 7 8 C7 6.35 7 4.7 7 3 C5.35 2.67 3.7 2.34 2 2 C2 4.64 2 7.28 2 10 C2.99 10.33 3.98 10.66 5 11 C3.35 11.33 1.7 11.66 0 12 C0 8.04 0 4.08 0 0 Z " fill="#161616" transform="translate(165,43)"/>
<path d="M0 0 C1.32 0 2.64 0 4 0 C4.66 1.65 5.32 3.3 6 5 C5.34 5 4.68 5 4 5 C3.67 4.34 3.34 3.68 3 3 C2.01 3.495 2.01 3.495 1 4 C0.5720382 5.86309092 0.5720382 5.86309092 0.4375 8 C0.09589041 11.90410959 0.09589041 11.90410959 -1 13 C-3.33297433 13.04092937 -5.66705225 13.04241723 -8 13 C-8.66 11.68 -9.32 10.36 -10 9 C-8.515 9.99 -8.515 9.99 -7 11 C-4.37468476 11.16713569 -4.37468476 11.16713569 -2 11 C-1.67 9.02 -1.34 7.04 -1 5 C-1.99 4.67 -2.98 4.34 -4 4 C-3.34 3.67 -2.68 3.34 -2 3 C-1.67 2.34 -1.34 1.68 -1 1 C-0.67 0.67 -0.34 0.34 0 0 Z " fill="#6C6C6C" transform="translate(90,42)"/>
<path d="M0 0 C1.32 0 2.64 0 4 0 C6.125 4.625 6.125 4.625 5 8 C3.824375 7.9690625 3.824375 7.9690625 2.625 7.9375 C0.01885039 7.81315937 0.01885039 7.81315937 -2 9 C-1.34 6.03 -0.68 3.06 0 0 Z " fill="#5A5A5A" transform="translate(124,42)"/>
<path d="M0 0 C0.99 0.495 0.99 0.495 2 1 C2 1.66 2 2.32 2 3 C2.66 3 3.32 3 4 3 C4.33 2.01 4.66 1.02 5 0 C6.37432457 3.81756824 5.67975039 7.07255329 5 11 C3.68 11 2.36 11 1 11 C0.67 7.37 0.34 3.74 0 0 Z " fill="#3E3E3E" transform="translate(92,44)"/>
<path d="M0 0 C0.99 0 1.98 0 3 0 C3 3.3 3 6.6 3 10 C1.02 10.99 1.02 10.99 -1 12 C-1.02687279 10.18757948 -1.04633715 8.37504767 -1.0625 6.5625 C-1.07410156 5.55316406 -1.08570313 4.54382813 -1.09765625 3.50390625 C-1 1 -1 1 0 0 Z " fill="#5E5E5E" transform="translate(252,16)"/>
<path d="M0 0 C0.99 0 1.98 0 3 0 C3.66 1.65 4.32 3.3 5 5 C2 5 2 5 -1 4 C-1.99 4.495 -1.99 4.495 -3 5 C-4.70702735 5.06996014 -6.41668003 5.08440154 -8.125 5.0625 C-9.03507813 5.05347656 -9.94515625 5.04445313 -10.8828125 5.03515625 C-11.58148438 5.02355469 -12.28015625 5.01195312 -13 5 C-13 4.34 -13 3.68 -13 3 C-12.22914063 2.95101563 -11.45828125 2.90203125 -10.6640625 2.8515625 C-9.66117188 2.77679687 -8.65828125 2.70203125 -7.625 2.625 C-6.62726563 2.55539063 -5.62953125 2.48578125 -4.6015625 2.4140625 C-1.84491121 2.23636036 -1.84491121 2.23636036 0 0 Z " fill="#191919" transform="translate(158,20)"/>
<path d="M0 0 C0.66 0 1.32 0 2 0 C2.33 0.66 2.66 1.32 3 2 C4.98 1.67 6.96 1.34 9 1 C9.33 1.66 9.66 2.32 10 3 C10.99 3.66 11.98 4.32 13 5 C7.52667068 6.46845421 4.88077452 5.44038726 0 3 C0 2.01 0 1.02 0 0 Z M-2 2 C-1.34 2.66 -0.68 3.32 0 4 C-0.66 4 -1.32 4 -2 4 C-2 3.34 -2 2.68 -2 2 Z " fill="#262626" transform="translate(113,21)"/>
<path d="M0 0 C1.32 0.33 2.64 0.66 4 1 C4.3682455 8.48765844 4.3682455 8.48765844 2.5625 11 C1 12 1 12 0 12 C0 8.04 0 4.08 0 0 Z " fill="#5D5D5D" transform="translate(198,16)"/>
<path d="M0 0 C1.32 0 2.64 0 4 0 C4 1.32 4 2.64 4 4 C3.01 4 2.02 4 1 4 C1.66 4.33 2.32 4.66 3 5 C3 5.66 3 6.32 3 7 C2.01 7 1.02 7 0 7 C-0.33 7.66 -0.66 8.32 -1 9 C-1.99 8.34 -2.98 7.68 -4 7 C-2.92598892 4.08482708 -2.22189824 2.22189824 0 0 Z " fill="#616161" transform="translate(80,18)"/>
<path d="M0 0 C1.32 0.33 2.64 0.66 4 1 C4 2.65 4 4.3 4 6 C3.34 6 2.68 6 2 6 C2 8.31 2 10.62 2 13 C1.34 13 0.68 13 0 13 C0 8.71 0 4.42 0 0 Z " fill="#313131" transform="translate(132,42)"/>
<path d="M0 0 C0.66 0 1.32 0 2 0 C3.125 7.625 3.125 7.625 2 11 C1.01 11.33 0.02 11.66 -1 12 C-1.02687279 10.18757948 -1.04633715 8.37504767 -1.0625 6.5625 C-1.07410156 5.55316406 -1.08570313 4.54382813 -1.09765625 3.50390625 C-1 1 -1 1 0 0 Z " fill="#545454" transform="translate(131,16)"/>
<path d="M0 0 C0.33 0 0.66 0 1 0 C1 3.96 1 7.92 1 12 C0.01 11.67 -0.98 11.34 -2 11 C-2.12375 10.030625 -2.2475 9.06125 -2.375 8.0625 C-2.58125 7.051875 -2.7875 6.04125 -3 5 C-3.66 4.67 -4.32 4.34 -5 4 C-4.34 4 -3.68 4 -3 4 C-2.67 3.34 -2.34 2.68 -2 2 C-1.67 2.99 -1.34 3.98 -1 5 C-0.67 3.35 -0.34 1.7 0 0 Z " fill="#2D2D2D" transform="translate(243,43)"/>
<path d="M0 0 C2 3.75 2 3.75 2 6 C3.32 5.67 4.64 5.34 6 5 C5.67 3.68 5.34 2.36 5 1 C5.99 1.33 6.98 1.66 8 2 C8.042721 3.66611905 8.04063832 5.33382885 8 7 C7 8 7 8 4.625 8.25 C2 8 2 8 0.125 6.8125 C-1 5 -1 5 -0.6875 2.3125 C-0.460625 1.549375 -0.23375 0.78625 0 0 Z " fill="#161616" transform="translate(81,46)"/>
<path d="M0 0 C0.99 0 1.98 0 3 0 C3 3.3 3 6.6 3 10 C2.01 10.495 2.01 10.495 1 11 C-1.03684712 6.92630576 -1.0257259 4.41062136 0 0 Z " fill="#414141" transform="translate(247,15)"/>
<path d="M0 0 C4.29 0.66 8.58 1.32 13 2 C13 2.66 13 3.32 13 4 C8.33333333 4 3.66666667 4 -1 4 C-0.67 2.68 -0.34 1.36 0 0 Z " fill="#373737" transform="translate(87,21)"/>
<path d="M0 0 C2.97 0 5.94 0 9 0 C9 0.33 9 0.66 9 1 C7.35 1 5.7 1 4 1 C4 4.96 4 8.92 4 13 C3.67 13 3.34 13 3 13 C2.67 10.03 2.34 7.06 2 4 C1.01 3.67 0.02 3.34 -1 3 C-0.67 2.01 -0.34 1.02 0 0 Z " fill="#797979" transform="translate(97,42)"/>
<path d="M0 0 C0.33 0.99 0.66 1.98 1 3 C1.7425 2.484375 2.485 1.96875 3.25 1.4375 C6 0 6 0 8.3125 0.3125 C8.869375 0.539375 9.42625 0.76625 10 1 C9.01 1.33 8.02 1.66 7 2 C6.67 2.99 6.34 3.98 6 5 C0.25 5.125 0.25 5.125 -2 4 C-2 3.01 -2 2.02 -2 1 C-1.34 0.67 -0.68 0.34 0 0 Z " fill="#606060" transform="translate(103,20)"/>
<path d="M0 0 C0.66 0 1.32 0 2 0 C1.34 2.64 0.68 5.28 0 8 C1.32 8.66 2.64 9.32 4 10 C1.625 10.125 1.625 10.125 -1 10 C-1.66 9.34 -2.32 8.68 -3 8 C-2.54545455 2.54545455 -2.54545455 2.54545455 0 0 Z " fill="#767676" transform="translate(207,21)"/>
<path d="M0 0 C1.36511719 0.43119141 1.36511719 0.43119141 2.7578125 0.87109375 C3.45648438 1.09925781 4.15515625 1.32742187 4.875 1.5625 C4.545 2.8825 4.215 4.2025 3.875 5.5625 C3.545 4.5725 3.215 3.5825 2.875 2.5625 C0.235 2.2325 -2.405 1.9025 -5.125 1.5625 C-5.455 2.2225 -5.785 2.8825 -6.125 3.5625 C-6.785 3.5625 -7.445 3.5625 -8.125 3.5625 C-7.75 1.625 -7.75 1.625 -7.125 -0.4375 C-4.30685434 -1.84657283 -2.95222796 -0.94622691 0 0 Z " fill="#5F5F5F" transform="translate(180.125,20.4375)"/>
<path d="M0 0 C0.66 0.99 1.32 1.98 2 3 C1.67 3.99 1.34 4.98 1 6 C0.67 6 0.34 6 0 6 C-0.33 6.66 -0.66 7.32 -1 8 C-1.66 6.68 -2.32 5.36 -3 4 C-3.99 4 -4.98 4 -6 4 C-5.67 3.01 -5.34 2.02 -5 1 C-5 1.66 -5 2.32 -5 3 C-4.34 3 -3.68 3 -3 3 C-3 2.34 -3 1.68 -3 1 C-2.01 0.67 -1.02 0.34 0 0 Z " fill="#626262" transform="translate(197,44)"/>
<path d="M0 0 C0.33 0.66 0.66 1.32 1 2 C1.66 2 2.32 2 3 2 C3 1.34 3 0.68 3 0 C3.66 0 4.32 0 5 0 C5.66 3.3 6.32 6.6 7 10 C5.68 9.67 4.36 9.34 3 9 C3.33 7.02 3.66 5.04 4 3 C2.68 3 1.36 3 0 3 C0 2.01 0 1.02 0 0 Z " fill="#5D5D5D" transform="translate(148,45)"/>
<path d="M0 0 C1.98 0 3.96 0 6 0 C6 0.66 6 1.32 6 2 C4.68 2 3.36 2 2 2 C2 2.66 2 3.32 2 4 C3.65 4 5.3 4 7 4 C7 4.99 7 5.98 7 7 C6.34 7 5.68 7 5 7 C5 6.34 5 5.68 5 5 C3.35 5 1.7 5 0 5 C0 3.35 0 1.7 0 0 Z " fill="#2F2F2F" transform="translate(157,43)"/>
<path d="M0 0 C0.66 0 1.32 0 2 0 C2 2.31 2 4.62 2 7 C0.02 7 -1.96 7 -4 7 C-4 6.34 -4 5.68 -4 5 C-5.65 5 -7.3 5 -9 5 C-8.67 4.34 -8.34 3.68 -8 3 C-5.69 3.66 -3.38 4.32 -1 5 C-0.67 3.35 -0.34 1.7 0 0 Z " fill="#636363" transform="translate(238,48)"/>
<path d="M0 0 C0.66 0 1.32 0 2 0 C2 1.98 2 3.96 2 6 C0.02 6 -1.96 6 -4 6 C-1.125 1.125 -1.125 1.125 0 0 Z " fill="#585858" transform="translate(243,18)"/>
<path d="M0 0 C0.99 0.33 1.98 0.66 3 1 C2.67 2.65 2.34 4.3 2 6 C0.02 6 -1.96 6 -4 6 C-4.33 5.34 -4.66 4.68 -5 4 C-3.35 4 -1.7 4 0 4 C0 2.68 0 1.36 0 0 Z " fill="#535353" transform="translate(223,49)"/>
<path d="M0 0 C2.125 0.9375 2.125 0.9375 4 2 C4 2.99 4 3.98 4 5 C1.69 5 -0.62 5 -3 5 C-2.625 3.0625 -2.625 3.0625 -2 1 C-1.34 0.67 -0.68 0.34 0 0 Z " fill="#373737" transform="translate(183,41)"/>
<path d="M0 0 C0.33 0.66 0.66 1.32 1 2 C2.65 2 4.3 2 6 2 C6 1.34 6 0.68 6 0 C7.32 0.33 8.64 0.66 10 1 C9.67 1.66 9.34 2.32 9 3 C9.99 3.66 10.98 4.32 12 5 C10.9790625 4.7834375 10.9790625 4.7834375 9.9375 4.5625 C6.63726918 3.93054091 3.32855574 3.45686059 0 3 C0 2.01 0 1.02 0 0 Z " fill="#6A6A6A" transform="translate(201,50)"/>
<path d="M0 0 C-0.33 0.99 -0.66 1.98 -1 3 C-3.31 3.33 -5.62 3.66 -8 4 C-7.67 3.01 -7.34 2.02 -7 1 C-4 0 -4 0 0 0 Z " fill="#404040" transform="translate(223,25)"/>
<path d="M0 0 C0.99 0.33 1.98 0.66 3 1 C2.34 1 1.68 1 1 1 C1 2.98 1 4.96 1 7 C-0.75 7.75 -0.75 7.75 -3 8 C-5.25 6.0625 -5.25 6.0625 -7 4 C-6.071875 4.2784375 -6.071875 4.2784375 -5.125 4.5625 C-2.95839822 5.23686176 -2.95839822 5.23686176 -1 4 C-0.34786708 1.97536745 -0.34786708 1.97536745 0 0 Z " fill="#696969" transform="translate(224,15)"/>
<path d="M0 0 C0.66 0.99 1.32 1.98 2 3 C0.6875 5 0.6875 5 -1 7 C-1.99 7 -2.98 7 -4 7 C-4 6.01 -4 5.02 -4 4 C-3.34 4 -2.68 4 -2 4 C-1.34 2.68 -0.68 1.36 0 0 Z " fill="#404040" transform="translate(88,25)"/>
<path d="M0 0 C0.5625 1.9375 0.5625 1.9375 1 4 C0 5 0 5 -3.5625 5.0625 C-4.696875 5.041875 -5.83125 5.02125 -7 5 C-6.67 3.68 -6.34 2.36 -6 1 C-5.67 1.66 -5.34 2.32 -5 3 C-3.35 3 -1.7 3 0 3 C0 2.01 0 1.02 0 0 Z " fill="#6E6E6E" transform="translate(194,23)"/>
<path d="M0 0 C0.99 0 1.98 0 3 0 C3.66 1.65 4.32 3.3 5 5 C3.33333333 5 1.66666667 5 0 5 C-0.5625 3.0625 -0.5625 3.0625 -1 1 C-0.67 0.67 -0.34 0.34 0 0 Z " fill="#4D4D4D" transform="translate(158,20)"/>
<path d="M0 0 C0.33 0 0.66 0 1 0 C1 3.63 1 7.26 1 11 C0.01 10.67 -0.98 10.34 -2 10 C-2 9.01 -2 8.02 -2 7 C-1.34 7 -0.68 7 0 7 C0 4.69 0 2.38 0 0 Z " fill="#131313" transform="translate(139,43)"/>
<path d="M0 0 C1.32 0 2.64 0 4 0 C4 1.32 4 2.64 4 4 C2.35 4 0.7 4 -1 4 C-0.67 2.68 -0.34 1.36 0 0 Z " fill="#4A4A4A" transform="translate(80,18)"/>
<path d="M0 0 C2.0625 0.4375 2.0625 0.4375 4 1 C2.625 3.5 2.625 3.5 1 6 C0.34 6 -0.32 6 -1 6 C-1.042721 4.33388095 -1.04063832 2.66617115 -1 1 C-0.67 0.67 -0.34 0.34 0 0 Z " fill="#424242" transform="translate(71,49)"/>
<path d="M0 0 C0.99 0.33 1.98 0.66 3 1 C2.01 1 1.02 1 0 1 C0 0.67 0 0.34 0 0 Z " fill="#E30613" transform="translate(20,21)"/>
<path d="M0 0 C0.99 0.495 0.99 0.495 2 1 C1.01 1.495 1.01 1.495 0 2 C0 1.34 0 0.68 0 0 Z " fill="#E30613" transform="translate(23,52)"/>
</svg>
