<?xml version="1.0" encoding="UTF-8"?>
<svg version="1.1" xmlns="http://www.w3.org/2000/svg" width="258" height="118">
<path d="M0 0 C2.74892037 1.42020291 4.1814498 3.15476664 6.05566406 5.57910156 C10.12070483 10.69356547 13.50022279 13.49872037 20.140625 14.2890625 C25.62071886 14.68004621 30.92836779 14.4084735 36.46484375 14.2734375 C36.46484375 21.5334375 36.46484375 28.7934375 36.46484375 36.2734375 C37.78484375 36.9334375 39.10484375 37.5934375 40.46484375 38.2734375 C42.29032221 39.81513455 44.05819623 41.42649988 45.77734375 43.0859375 C46.68097656 43.93800781 47.58460938 44.79007813 48.515625 45.66796875 C50.46484375 48.2734375 50.46484375 48.2734375 50.6328125 50.78515625 C49.30374355 53.61665097 47.59469314 55.00869232 45.15942383 56.91479492 C40.18991154 60.89913952 37.25257013 64.19931628 36.484375 70.69140625 C36.21373322 75.27365151 36.25163823 79.83889978 36.47973633 84.42260742 C36.46484375 86.2734375 36.46484375 86.2734375 35.46484375 87.2734375 C33.99597534 87.333571 32.52456599 87.33404308 31.0546875 87.30859375 C20.8565439 86.9761647 20.8565439 86.9761647 11.3984375 90.01171875 C9.4777327 92.00531557 7.96966236 93.9576388 6.46484375 96.2734375 C4.91015625 98.03125 4.91015625 98.03125 3.46484375 99.2734375 C2.80484375 99.2734375 2.14484375 99.2734375 1.46484375 99.2734375 C1.46484375 99.9334375 1.46484375 100.5934375 1.46484375 101.2734375 C-3.88438966 100.65621826 -7.49714266 96.54871134 -10.72265625 92.5859375 C-11.32078125 91.8228125 -11.91890625 91.0596875 -12.53515625 90.2734375 C-15.7193647 88.15063187 -16.7405288 87.99324213 -20.421875 87.859375 C-21.35966797 87.82070312 -22.29746094 87.78203125 -23.26367188 87.7421875 C-24.24013672 87.71125 -25.21660156 87.6803125 -26.22265625 87.6484375 C-27.21072266 87.60976562 -28.19878906 87.57109375 -29.21679688 87.53125 C-31.65606332 87.43697883 -34.0953222 87.35137532 -36.53515625 87.2734375 C-36.52355469 86.6436499 -36.51195312 86.0138623 -36.5 85.36499023 C-36.47031076 82.47903711 -36.50225819 79.59682874 -36.53515625 76.7109375 C-36.51582031 75.72029297 -36.49648437 74.72964844 -36.4765625 73.70898438 C-36.57235219 67.99175049 -36.57235219 67.99175049 -39.25976562 63.10864258 C-41.27683663 61.34695879 -43.34321729 59.80862742 -45.53515625 58.2734375 C-47.73640978 56.36792668 -49.59072183 54.46092622 -51.53515625 52.2734375 C-51.53515625 48.2734375 -51.53515625 48.2734375 -49.99609375 46.5625 C-48.96355469 45.73878906 -48.96355469 45.73878906 -47.91015625 44.8984375 C-46.43735465 43.7077818 -44.98092313 42.4967787 -43.53515625 41.2734375 C-43.01324707 40.88365723 -42.49133789 40.49387695 -41.95361328 40.09228516 C-39.29948309 37.87826722 -37.76268777 36.24826724 -36.96337891 32.82373047 C-36.72255151 30.00095061 -36.65247931 27.23122817 -36.66015625 24.3984375 C-36.63953125 23.42390625 -36.61890625 22.449375 -36.59765625 21.4453125 C-36.55076439 19.05382767 -36.53069504 16.66528587 -36.53515625 14.2734375 C-35.96708252 14.31122314 -35.39900879 14.34900879 -34.8137207 14.38793945 C-22.32317794 15.31262556 -22.32317794 15.31262556 -11.421875 10.27734375 C-9.13107406 7.98148376 -7.13848145 5.52526944 -5.12890625 2.984375 C-2.53515625 0.2734375 -2.53515625 0.2734375 0 0 Z M-14.53515625 17.2734375 C-14.53515625 23.5434375 -14.53515625 29.8134375 -14.53515625 36.2734375 C-20.80515625 36.2734375 -27.07515625 36.2734375 -33.53515625 36.2734375 C-28.26098712 42.51694563 -28.26098712 42.51694563 -22.53515625 48.2734375 C-21.87515625 48.2734375 -21.21515625 48.2734375 -20.53515625 48.2734375 C-22.71284307 52.28496586 -25.28003271 55.0958169 -28.53515625 58.2734375 C-30.18515625 60.2534375 -31.83515625 62.2334375 -33.53515625 64.2734375 C-27.26515625 64.2734375 -20.99515625 64.2734375 -14.53515625 64.2734375 C-14.53515625 70.5434375 -14.53515625 76.8134375 -14.53515625 83.2734375 C-9.85709424 79.9208264 -5.88715232 77.0220986 -2.53515625 72.2734375 C2.3903315 72.68980067 4.40081149 74.80857681 7.71484375 78.3359375 C9.28615498 79.99325245 10.86632135 81.6423526 12.46484375 83.2734375 C12.79484375 83.2734375 13.12484375 83.2734375 13.46484375 83.2734375 C13.46484375 77.0034375 13.46484375 70.7334375 13.46484375 64.2734375 C19.73484375 64.2734375 26.00484375 64.2734375 32.46484375 64.2734375 C27.18331502 57.79880236 27.18331502 57.79880236 23.52734375 54.6484375 C21.46484375 52.2734375 21.46484375 52.2734375 21.48828125 49.953125 C22.8015919 46.34940057 25.16084465 44.41397607 28.02734375 42.0234375 C29.85549285 40.45580531 31.66533337 38.87431988 33.46484375 37.2734375 C33.46484375 36.9434375 33.46484375 36.6134375 33.46484375 36.2734375 C26.86484375 36.2734375 20.26484375 36.2734375 13.46484375 36.2734375 C13.46484375 30.3334375 13.46484375 24.3934375 13.46484375 18.2734375 C12.43359375 19.1603125 11.40234375 20.0471875 10.33984375 20.9609375 C7.07278944 23.76222032 3.77753105 26.52633096 0.46484375 29.2734375 C-3.43493988 27.69170708 -5.82726158 25.15075221 -8.72265625 22.1484375 C-10.31031962 20.50730962 -11.91021317 18.87766182 -13.53515625 17.2734375 C-13.86515625 17.2734375 -14.19515625 17.2734375 -14.53515625 17.2734375 Z " fill="#E84A10" transform="translate(207.53515625,6.7265625)"/>
<path d="M0 0 C5.03388635 2.24727069 8.9188215 6.4233961 12 11 C13.73582269 16.39288377 13.22542495 22.21245963 13.25 27.8125 C13.270625 28.97587891 13.29125 30.13925781 13.3125 31.33789062 C13.35352003 40.3469146 12.25871658 46.17230918 6 53 C2.97296167 55.69196279 1.12351714 56.37272215 -2.9140625 56.328125 C-4.30238281 56.32039063 -4.30238281 56.32039063 -5.71875 56.3125 C-7.15734375 56.2815625 -7.15734375 56.2815625 -8.625 56.25 C-9.59179688 56.24484375 -10.55859375 56.2396875 -11.5546875 56.234375 C-18.69071429 56.15464286 -18.69071429 56.15464286 -21 55 C-20.67 52.36 -20.34 49.72 -20 47 C-18.24623047 47.05220703 -18.24623047 47.05220703 -16.45703125 47.10546875 C-14.90886859 47.13361716 -13.36069032 47.16091619 -11.8125 47.1875 C-11.04357422 47.21263672 -10.27464844 47.23777344 -9.48242188 47.26367188 C-4.81465489 47.32377188 -1.79207123 47.04102023 2 44 C4.1544047 39.6911906 3.27425104 33.98267136 3.3125 29.25 C3.35600586 27.47882813 3.35600586 27.47882813 3.40039062 25.671875 C3.60851363 18.66098456 3.60851363 18.66098456 1.2265625 12.234375 C-1.66778762 9.32986927 -3.10928267 9.09175068 -7.0390625 8.89453125 C-10.84610628 9.09929257 -13.11339893 10.0817346 -15.75 12.8125 C-17.59861597 16.04757795 -18.44925598 18.32256219 -17.45703125 22.02734375 C-16.30212427 25.26929075 -15.46163686 27.53836314 -13 30 C-10.23789405 30.28213444 -10.23789405 30.28213444 -7.125 30.1875 C-6.07570312 30.18105469 -5.02640625 30.17460938 -3.9453125 30.16796875 C-0.79093309 30.08012467 -0.79093309 30.08012467 3 29 C3 31.97 3 34.94 3 38 C-2.39944387 40.40838504 -7.15563041 40.91143383 -13 40 C-18.92452363 37.39284999 -22.97591467 33.67016 -26 28 C-27.84960565 22.45118305 -27.51956732 16.91590449 -26 11.3125 C-19.56224398 0.6499666 -11.8412535 -0.94621889 0 0 Z " fill="#000000" transform="translate(137,62)"/>
<path d="M0 0 C2.97 0 5.94 0 9 0 C9.01458252 1.15000488 9.02916504 2.30000977 9.04418945 3.48486328 C9.10233762 7.76788805 9.17956924 12.05039616 9.26245117 16.33300781 C9.29562296 18.18350819 9.32367887 20.03410786 9.34643555 21.88476562 C9.3801245 24.55121003 9.4324466 27.2167509 9.48828125 29.8828125 C9.49467117 30.70492218 9.5010611 31.52703186 9.50764465 32.37405396 C9.6325314 37.2975338 10.31483365 40.71686667 13 45 C16.34870986 47.63112918 19.87988064 47.36141398 24 47 C26.78901573 45.76043745 28.44350587 44.71549246 30.3125 42.3125 C31.65781705 37.78734266 31.42610119 33.5405197 30.1875 29.0625 C29.11332248 26.66868314 29.11332248 26.66868314 26 26 C24.21120198 25.8809314 22.4177144 25.82477887 20.625 25.8125 C19.68914062 25.79832031 18.75328125 25.78414062 17.7890625 25.76953125 C14.83881846 26.01331892 12.67635888 26.76887492 10 28 C9.71217624 24.94906814 9.60053009 22.04460848 10 19 C12.29493718 16.38851977 14.11587031 16.10775331 17.5 15.6953125 C23.853837 15.3952702 28.82663227 16.17876247 34 20 C38.91854509 24.57976775 41.06084463 29.17470106 41.375 35.8125 C41.22091272 41.91254364 39.53601974 46.40749875 35.24609375 50.79296875 C30.28117601 55.15670648 27.49717303 56.18681737 20.75 56.3125 C19.44546875 56.34988281 18.1409375 56.38726562 16.796875 56.42578125 C11.10678358 55.78769487 8.16532439 53.19180903 4.25 49.1875 C-0.05503021 43.0887072 -0.28619193 36.97753163 -0.1953125 29.78515625 C-0.1924826 28.92941513 -0.18965271 28.07367401 -0.18673706 27.19200134 C-0.17561935 24.48202009 -0.15053082 21.77237991 -0.125 19.0625 C-0.11495931 17.21549959 -0.10583537 15.36849396 -0.09765625 13.52148438 C-0.07570763 9.01419323 -0.04123654 4.50715427 0 0 Z " fill="#000000" transform="translate(110,0)"/>
<path d="M0 0 C3.63660642 1.24744058 5.91900674 3.49341489 8.5625 6.171875 C9.07296875 6.65011719 9.5834375 7.12835938 10.109375 7.62109375 C12.33999722 9.84568726 13.63769713 11.27244561 13.8828125 14.46875 C12.52543304 17.254483 10.796761 18.6732445 8.38208008 20.56323242 C3.41256779 24.54757702 0.47522638 27.84775378 -0.29296875 34.33984375 C-0.56361053 38.92208901 -0.52570552 43.48733728 -0.29760742 48.07104492 C-0.3125 49.921875 -0.3125 49.921875 -1.3125 50.921875 C-2.87422745 51.00873103 -4.43979344 51.02889719 -6.00390625 51.01953125 C-6.94814453 51.01630859 -7.89238281 51.01308594 -8.86523438 51.00976562 C-9.85845703 51.00138672 -10.85167969 50.99300781 -11.875 50.984375 C-12.87208984 50.97986328 -13.86917969 50.97535156 -14.89648438 50.97070312 C-17.36854849 50.95887507 -19.84049518 50.94239349 -22.3125 50.921875 C-23.02318284 47.72257268 -23.43372244 44.77179398 -23.41015625 41.49609375 C-23.40765869 40.77768311 -23.40516113 40.05927246 -23.40258789 39.3190918 C-23.39348389 38.42488525 -23.38437988 37.53067871 -23.375 36.609375 C-23.354375 33.7425 -23.33375 30.875625 -23.3125 27.921875 C-17.3725 27.591875 -11.4325 27.261875 -5.3125 26.921875 C-8.96164849 23.50956094 -8.96164849 23.50956094 -12.64282227 20.13208008 C-14.00390625 18.81640625 -14.00390625 18.81640625 -16.3125 15.921875 C-16.35847551 12.81393049 -15.75019135 11.50184619 -13.89453125 9.04296875 C-4.23943746 -0.14322424 -4.23943746 -0.14322424 0 0 Z " fill="#CF400C" transform="translate(244.3125,43.078125)"/>
<path d="M0 0 C2.64 0 5.28 0 8 0 C8.33 5.94 8.66 11.88 9 18 C13.85927095 14.07034854 13.85927095 14.07034854 17.875 9.6875 C18.926875 8.3571875 18.926875 8.3571875 20 7 C24.8952728 7.42109874 26.84873395 9.47325489 30.125 13 C33.53078054 16.81501536 33.53078054 16.81501536 38 19 C37.50389225 23.31463406 36.27462809 25.1830397 33.125 28.125 C32.42632812 28.78757812 31.72765625 29.45015625 31.0078125 30.1328125 C30.34523437 30.74898437 29.68265625 31.36515625 29 32 C28.46117187 32.57492188 27.92234375 33.14984375 27.3671875 33.7421875 C26 35 26 35 24 35 C24 35.66 24 36.32 24 37 C18.65076659 36.38278076 15.03801359 32.27527384 11.8125 28.3125 C11.214375 27.549375 10.61625 26.78625 10 26 C6.81579155 23.87719437 5.79462745 23.71980463 2.11328125 23.5859375 C1.26805908 23.55032715 0.42283691 23.5147168 -0.44799805 23.47802734 C-1.51703369 23.44402832 -2.58606934 23.4100293 -3.6875 23.375 C-7.090625 23.25125 -10.49375 23.1275 -14 23 C-14 16.07 -14 9.14 -14 2 C-9.38 1.67 -4.76 1.34 0 1 C0 0.67 0 0.34 0 0 Z " fill="#D7430D" transform="translate(185,71)"/>
<path d="M0 0 C4.2879661 2.50131356 7.33373721 5.91747442 9.5625 10.375 C9.64793895 12.48028933 9.66964725 14.58831157 9.66015625 16.6953125 C9.65693359 17.95214844 9.65371094 19.20898438 9.65039062 20.50390625 C9.63782227 22.48197266 9.63782227 22.48197266 9.625 24.5 C9.61998489 25.83984211 9.61542201 27.179686 9.61132812 28.51953125 C9.59951086 31.80473206 9.58303617 35.08984397 9.5625 38.375 C6.5925 38.375 3.6225 38.375 0.5625 38.375 C0.54791748 37.67415283 0.53333496 36.97330566 0.51831055 36.2512207 C0.44364513 33.06276991 0.34704525 29.87534487 0.25 26.6875 C0.22744141 25.58470703 0.20488281 24.48191406 0.18164062 23.34570312 C0.14619141 22.27900391 0.11074219 21.21230469 0.07421875 20.11328125 C0.04803467 19.13399658 0.02185059 18.15471191 -0.00512695 17.14575195 C-0.50676263 13.93114818 -1.54080027 11.99898598 -3.4375 9.375 C-6.03266521 8.07741739 -7.97933027 8.24230898 -10.875 8.25 C-11.84308594 8.24742188 -12.81117187 8.24484375 -13.80859375 8.2421875 C-16.54767829 8.26286027 -16.54767829 8.26286027 -19.4375 9.375 C-21.76134219 15.18460548 -21.68793493 19.8160698 -19.625 25.6875 C-18.11582236 27.83212085 -16.86312035 28.40303156 -14.4375 29.375 C-9.15475559 29.5734573 -4.72524353 28.55622907 -0.4375 25.375 C-0.32925157 26.9776782 -0.25179355 28.58245748 -0.1875 30.1875 C-0.11789063 31.52748047 -0.11789063 31.52748047 -0.046875 32.89453125 C-0.4375 35.375 -0.4375 35.375 -2.0234375 37.171875 C-7.07145609 39.68771598 -12.95825014 38.9490774 -18.4375 38.375 C-22 36.6875 -22 36.6875 -24.4375 34.375 C-25.365625 33.529375 -26.29375 32.68375 -27.25 31.8125 C-30.88815444 27.75855648 -30.6793882 23.75482138 -30.75 18.5625 C-30.79350586 17.51352539 -30.79350586 17.51352539 -30.83789062 16.44335938 C-30.9004923 11.29557536 -29.81308931 8.45682963 -26.4375 4.375 C-24.62109375 2.73046875 -24.62109375 2.73046875 -22.875 1.5625 C-22.29621094 1.16417969 -21.71742187 0.76585937 -21.12109375 0.35546875 C-15.11089497 -3.14467022 -6.2161689 -2.85896318 0 0 Z " fill="#000000" transform="translate(96.4375,17.625)"/>
<path d="M0 0 C4.62384135 2.68182798 8.1631756 5.77718717 10.125 10.8125 C10.35205078 13.83691406 10.35205078 13.83691406 10.3203125 17.328125 C10.31386719 18.57851563 10.30742188 19.82890625 10.30078125 21.1171875 C10.28402344 22.41914062 10.26726563 23.72109375 10.25 25.0625 C10.24097656 26.37992188 10.23195312 27.69734375 10.22265625 29.0546875 C10.19908533 32.30747462 10.16618022 35.55989589 10.125 38.8125 C3.97265625 38.91015625 3.97265625 38.91015625 2.125 38.8125 C0.42948266 37.11698266 0.93588987 34.92683174 0.87890625 32.60546875 C0.84603516 31.54392578 0.81316406 30.48238281 0.77929688 29.38867188 C0.71841897 27.14137033 0.66108926 24.89396968 0.60742188 22.64648438 C0.57326172 21.58107422 0.53910156 20.51566406 0.50390625 19.41796875 C0.4788501 18.43981201 0.45379395 17.46165527 0.42797852 16.45385742 C0.11835609 13.75457864 -0.41183424 12.08720217 -1.875 9.8125 C-4.44064725 8.52967637 -6.38533069 8.60858047 -9.25 8.5625 C-10.20648437 8.53671875 -11.16296875 8.5109375 -12.1484375 8.484375 C-15.30928645 8.8647637 -16.61491733 9.60401739 -18.875 11.8125 C-20.86307394 17.77672183 -20.17311043 23.06722393 -17.875 28.8125 C-10.69548952 30.040859 -10.69548952 30.040859 -3.8125 28.4375 C-3.173125 27.90125 -2.53375 27.365 -1.875 26.8125 C-1.215 26.4825 -0.555 26.1525 0.125 25.8125 C0.125 29.4425 0.125 33.0725 0.125 36.8125 C-5.54890988 39.64945494 -10.62864381 39.5223132 -16.875 38.8125 C-22.30217896 36.95446899 -26.23513257 33.22658875 -29.03125 28.2578125 C-31.14100839 22.14342014 -30.6996445 15.48046751 -28.8125 9.375 C-21.782792 0.07764426 -11.43194708 -4.41233045 0 0 Z " fill="#000000" transform="translate(29.875,17.1875)"/>
<path d="M0 0 C5.28009192 2.77649777 9.91611634 7.69756778 11.80078125 13.3515625 C12.49458386 20.39195289 12.31597709 26.63896665 7.80078125 32.3515625 C1.49366016 38.06037961 -2.75508041 39.6573468 -11.22265625 39.56640625 C-17.50737991 39.11278446 -21.80104656 35.65199753 -26.19921875 31.3515625 C-29.44785513 25.82888066 -30.06391429 20.61077906 -29.19921875 14.3515625 C-27.35622476 8.1533982 -23.51829338 3.91818099 -18.19921875 0.3515625 C-12.59347293 -1.51701944 -5.69242754 -1.6784067 0 0 Z M-17.19921875 10.3515625 C-19.88123455 14.3745862 -20.96665005 17.55511689 -20.19921875 22.3515625 C-19.14840671 25.74365751 -17.98364639 28.09406838 -15.19921875 30.3515625 C-10.73988186 31.33939029 -6.6361685 31.46788319 -2.19921875 30.3515625 C1.23681684 26.78932861 2.72676693 24.48028089 3.05078125 19.5390625 C2.9807687 15.67436964 2.38204674 13.36303891 -0.19921875 10.3515625 C-6.50103774 6.37867662 -10.91978917 6.25628234 -17.19921875 10.3515625 Z " fill="#000000" transform="translate(73.19921875,62.6484375)"/>
<path d="M0 0 C0.02887512 3.64581687 0.04675585 7.29160463 0.0625 10.9375 C0.07087891 11.97841797 0.07925781 13.01933594 0.08789062 14.09179688 C0.09272461 15.57583008 0.09272461 15.57583008 0.09765625 17.08984375 C0.10551147 18.46450806 0.10551147 18.46450806 0.11352539 19.86694336 C0 22 0 22 -1 23 C-2.56172745 23.08685603 -4.12729344 23.10702219 -5.69140625 23.09765625 C-6.63564453 23.09443359 -7.57988281 23.09121094 -8.55273438 23.08789062 C-10.04256836 23.07532227 -10.04256836 23.07532227 -11.5625 23.0625 C-12.55958984 23.05798828 -13.55667969 23.05347656 -14.58398438 23.04882812 C-17.05604849 23.03700007 -19.52799518 23.02051849 -22 23 C-22.71068284 19.80069768 -23.12122244 16.84991898 -23.09765625 13.57421875 C-23.09443359 12.77822266 -23.09121094 11.98222656 -23.08789062 11.16210938 C-23.07951172 10.34548828 -23.07113281 9.52886719 -23.0625 8.6875 C-23.05798828 7.85154297 -23.05347656 7.01558594 -23.04882812 6.15429688 C-23.03710548 4.10283351 -23.01917203 2.05140727 -23 0 C-19.72966072 -0.19689005 -16.45872059 -0.38089008 -13.1875 -0.5625 C-12.25873047 -0.61857422 -11.32996094 -0.67464844 -10.37304688 -0.73242188 C-9.48037109 -0.78076172 -8.58769531 -0.82910156 -7.66796875 -0.87890625 C-6.84578857 -0.9260376 -6.0236084 -0.97316895 -5.17651367 -1.02172852 C-3 -1 -3 -1 0 0 Z " fill="#B63809" transform="translate(244,71)"/>
<path d="M0 0 C3.80858597 1.76827206 6.05090508 3.98388019 9 7 C11.63744522 9.36731582 14.31438342 11.68757083 17 14 C16.45222723 17.73630086 15.08844515 19.10705613 12.1875 21.4375 C9.63557944 23.54442374 7.80865539 25.25694848 5.8125 27.9375 C4 30 4 30 1.81640625 30.51953125 C-2.57844983 29.70882964 -4.84094068 26.88474713 -7.875 23.75 C-8.48085937 23.16347656 -9.08671875 22.57695313 -9.7109375 21.97265625 C-10.278125 21.39902344 -10.8453125 20.82539062 -11.4296875 20.234375 C-11.94772949 19.71069336 -12.46577148 19.18701172 -12.99951172 18.64746094 C-14 17 -14 17 -13.84448242 15 C-12.88393489 12.72512131 -11.82667209 11.48220592 -10.05859375 9.765625 C-9.18364258 8.90517578 -9.18364258 8.90517578 -8.29101562 8.02734375 C-7.67935547 7.44082031 -7.06769531 6.85429688 -6.4375 6.25 C-5.82197266 5.64800781 -5.20644531 5.04601562 -4.57226562 4.42578125 C-3.05485187 2.94365619 -1.52829404 1.4709033 0 0 Z " fill="#D5430D" transform="translate(20,65)"/>
<path d="M0 0 C0 2.64 0 5.28 0 8 C-0.61488281 8.15855469 -1.22976562 8.31710938 -1.86328125 8.48046875 C-2.67152344 8.71378906 -3.47976562 8.94710937 -4.3125 9.1875 C-5.11300781 9.40792969 -5.91351563 9.62835938 -6.73828125 9.85546875 C-9.76264507 11.38593265 -10.4961236 12.98591063 -12 16 C-12.49616505 18.79238688 -12.49616505 18.79238688 -12.51171875 21.73828125 C-12.54716797 22.80498047 -12.58261719 23.87167969 -12.61914062 24.97070312 C-12.65297852 26.62489258 -12.65297852 26.62489258 -12.6875 28.3125 C-12.72166016 29.43462891 -12.75582031 30.55675781 -12.79101562 31.71289062 C-12.87329601 34.47516062 -12.94251281 37.23712113 -13 40 C-19.15234375 40.09765625 -19.15234375 40.09765625 -21 40 C-23.44480421 37.55519579 -22.23393411 31.21694911 -22.25 27.9375 C-22.270625 26.91205078 -22.29125 25.88660156 -22.3125 24.83007812 C-22.35154165 17.20231601 -21.71593463 11.21623838 -16.625 5.1875 C-10.8785722 0.39881016 -7.35820536 -0.43283561 0 0 Z " fill="#000000" transform="translate(110,62)"/>
<path d="M0 0 C1 1 1 1 1.0625 4.5625 C1.041875 5.696875 1.02125 6.83125 1 8 C0.38511719 8.15855469 -0.22976562 8.31710938 -0.86328125 8.48046875 C-1.67152344 8.71378906 -2.47976562 8.94710938 -3.3125 9.1875 C-4.51326172 9.51814453 -4.51326172 9.51814453 -5.73828125 9.85546875 C-8.76264507 11.38593265 -9.4961236 12.98591063 -11 16 C-11.49616505 18.79238688 -11.49616505 18.79238688 -11.51171875 21.73828125 C-11.54716797 22.80498047 -11.58261719 23.87167969 -11.61914062 24.97070312 C-11.65297852 26.62489258 -11.65297852 26.62489258 -11.6875 28.3125 C-11.72166016 29.43462891 -11.75582031 30.55675781 -11.79101562 31.71289062 C-11.87329601 34.47516062 -11.94251281 37.23712113 -12 40 C-14.64 40 -17.28 40 -20 40 C-20.08735463 35.45845522 -20.14051247 30.91712768 -20.1875 26.375 C-20.21263672 25.08980469 -20.23777344 23.80460937 -20.26367188 22.48046875 C-20.27333984 21.23652344 -20.28300781 19.99257813 -20.29296875 18.7109375 C-20.3086792 17.56931152 -20.32438965 16.42768555 -20.34057617 15.25146484 C-19.87305642 10.78807555 -18.52518476 7.29456207 -15.0625 4.35546875 C-14.381875 3.97003906 -13.70125 3.58460937 -13 3.1875 C-12.319375 2.78917969 -11.63875 2.39085937 -10.9375 1.98046875 C-7.17782254 0.07789004 -4.16456176 -0.1810679 0 0 Z " fill="#000000" transform="translate(66,16)"/>
<path d="M0 0 C5.28 0 10.56 0 16 0 C16 0.66 16 1.32 16 2 C15.31292969 1.98839844 14.62585938 1.97679688 13.91796875 1.96484375 C13.01691406 1.95582031 12.11585938 1.94679688 11.1875 1.9375 C10.29417969 1.92589844 9.40085938 1.91429688 8.48046875 1.90234375 C5.86586209 1.88990033 5.86586209 1.88990033 3 3 C2.67 7.95 2.34 12.9 2 18 C1.34 18 0.68 18 0 18 C0 12.06 0 6.12 0 0 Z " fill="#C23C0A" transform="translate(221,71)"/>
</svg>
