<?xml version="1.0" encoding="UTF-8"?>
<svg version="1.1" xmlns="http://www.w3.org/2000/svg" width="250" height="123">
<path d="M0 0 C3.96 0 7.92 0 12 0 C12 13.86 12 27.72 12 42 C13.98 42 15.96 42 18 42 C18 33.75 18 25.5 18 17 C21.96 17 25.92 17 30 17 C30 25.25 30 33.5 30 42 C30.99 42 31.98 42 33 42 C33 33.75 33 25.5 33 17 C36.96 17 40.92 17 45 17 C45 25.25 45 33.5 45 42 C45.66 42 46.32 42 47 42 C47 33.75 47 25.5 47 17 C50.96 17 54.92 17 59 17 C59 27.89 59 38.78 59 50 C39.53 50 20.06 50 0 50 C-0.94782027 47.15653918 -1.12649109 45.39955938 -1.12939453 42.45263672 C-1.13254669 41.53513641 -1.13569885 40.61763611 -1.13894653 39.67233276 C-1.1369223 38.68475983 -1.13489807 37.69718689 -1.1328125 36.6796875 C-1.13376923 35.66528595 -1.13472595 34.6508844 -1.13571167 33.60574341 C-1.13639217 31.4622593 -1.13454691 29.31877312 -1.13037109 27.17529297 C-1.12500999 23.88113828 -1.13032616 20.58711925 -1.13671875 17.29296875 C-1.13605816 15.21354136 -1.1347774 13.13411406 -1.1328125 11.0546875 C-1.13483673 10.0630661 -1.13686096 9.0714447 -1.13894653 8.04977417 C-1.13421829 6.68298019 -1.13421829 6.68298019 -1.12939453 5.28857422 C-1.12859894 4.48265839 -1.12780334 3.67674255 -1.12698364 2.84640503 C-1 1 -1 1 0 0 Z " fill="#E31A23" transform="translate(143,0)"/>
<path d="M0 0 C-1 3 -1 3 -3.3125 5.25 C-7 7 -7 7 -19 6 C-19 29.1 -19 52.2 -19 76 C-21.97 76 -24.94 76 -28 76 C-28.33 53.23 -28.66 30.46 -29 7 C-33.95 9.475 -33.95 9.475 -39 12 C-39.99 12.33 -40.98 12.66 -42 13 C-43.12955044 14.79391355 -43.12955044 14.79391355 -44 17 C-44.35320313 17.76957031 -44.70640625 18.53914063 -45.0703125 19.33203125 C-48.38178835 27.12013186 -48.85751463 32.82072816 -46 40.84375 C-44.48586264 44.10860869 -42.46965924 46.39684567 -40 49 C-41.98 50.98 -43.96 52.96 -46 55 C-49.2443953 53.59528379 -51.23517149 51.96263471 -53.5625 49.3125 C-54.14128906 48.66925781 -54.72007813 48.02601562 -55.31640625 47.36328125 C-60.91855848 39.49947127 -60.95003605 31.2354466 -60 22 C-57.76619538 14.10929203 -52.35826787 7.23411422 -45.33349609 2.99414062 C-31.00357912 -4.94857401 -15.19258493 -7.49590093 0 0 Z " fill="#27318B" transform="translate(66,9)"/>
<path d="M0 0 C4.29 0 8.58 0 13 0 C13.02464201 6.96003966 13.04283222 13.92005416 13.05493164 20.88012695 C13.05997341 23.24992312 13.06680665 25.61971615 13.07543945 27.98950195 C13.0875119 31.38754039 13.09322971 34.78553785 13.09765625 38.18359375 C13.10281754 39.25024765 13.10797882 40.31690155 13.11329651 41.4158783 C13.11337204 42.39681961 13.11344757 43.37776093 13.11352539 44.38842773 C13.115746 45.25668686 13.11796661 46.12494598 13.12025452 47.01951599 C13 49 13 49 12 50 C10.61839885 50.0927833 9.23211962 50.11747043 7.84741211 50.11352539 C6.96657455 50.11344986 6.085737 50.11337433 5.1782074 50.11329651 C4.22092239 50.10813522 3.26363739 50.10297394 2.27734375 50.09765625 C1.30213272 50.0962413 0.32692169 50.09482635 -0.67784119 50.09336853 C-3.80609143 50.08775133 -6.93427123 50.07519593 -10.0625 50.0625 C-12.17773334 50.05748722 -14.29296781 50.05292393 -16.40820312 50.04882812 C-21.60549296 50.03777631 -26.80274145 50.02102146 -32 50 C-32.0990914 45.94335053 -32.17157106 41.8871723 -32.21972656 37.82958984 C-32.23980642 36.4502332 -32.26707666 35.07096131 -32.30175781 33.69189453 C-32.35042817 31.70643021 -32.37086418 29.72033746 -32.390625 27.734375 C-32.41157227 26.54038086 -32.43251953 25.34638672 -32.45410156 24.11621094 C-32 21 -32 21 -30.328125 18.60351562 C-27.43799193 16.61291223 -25.84619968 16.53518724 -22.359375 16.609375 C-21.39483398 16.61936523 -20.43029297 16.62935547 -19.43652344 16.63964844 C-17.61169434 16.69427246 -17.61169434 16.69427246 -15.75 16.75 C-9.93375 16.87375 -9.93375 16.87375 -4 17 C-4 25.25 -4 33.5 -4 42 C-2.02 41.505 -2.02 41.505 0 41 C0 27.47 0 13.94 0 0 Z M-19 22 C-20.20217503 24.40435006 -20.03897118 25.68381369 -19.87890625 28.3515625 C-19.83056641 29.20234375 -19.78222656 30.053125 -19.73242188 30.9296875 C-19.67634766 31.81914062 -19.62027344 32.70859375 -19.5625 33.625 C-19.51029297 34.5221875 -19.45808594 35.419375 -19.40429688 36.34375 C-19.2744565 38.56284012 -19.13948661 40.78149871 -19 43 C-18.01 43 -17.02 43 -16 43 C-14.35927741 39.71855481 -14.85725566 36.10210004 -14.875 32.5 C-14.87113281 31.71496094 -14.86726563 30.92992187 -14.86328125 30.12109375 C-14.76192381 25.92729677 -14.76192381 25.92729677 -16 22 C-16.99 22 -17.98 22 -19 22 Z " fill="#E31B23" transform="translate(125,0)"/>
<path d="M0 0 C4.22793117 8.63968544 5.04091336 16.75800842 2 26 C0.57535303 28.86935938 -1.10549064 31.42184505 -3 34 C-3.598125 34.86625 -4.19625 35.7325 -4.8125 36.625 C-7.82844142 39.89945069 -11.23089358 42.62595245 -15 45 C-15.66 45 -16.32 45 -17 45 C-16.59273682 45.54301758 -16.18547363 46.08603516 -15.76586914 46.64550781 C-8.17724609 56.76367188 -0.58862305 66.88183594 7 77 C3.6806602 78.1064466 1.24354479 78.1981207 -2.25 78.125 C-3.89742187 78.12886719 -3.89742187 78.12886719 -5.578125 78.1328125 C-10.88784334 76.37502903 -12.96147191 72.52388186 -16 68 C-16.59377441 67.1332666 -17.18754883 66.2665332 -17.79931641 65.37353516 C-19.62022935 62.68130134 -21.4084202 59.97003258 -23.1875 57.25 C-27.59339135 50.46408537 -27.59339135 50.46408537 -32.42578125 43.984375 C-34 42 -34 42 -34 40 C-33.23816406 39.79246094 -32.47632813 39.58492187 -31.69140625 39.37109375 C-23.11801907 36.81299196 -15.39517522 33.38768075 -10.4375 25.5625 C-8.34350349 20.87637565 -8.84988668 15.73033753 -9.32202148 10.72290039 C-9.49489171 7.8963866 -9.53882318 5.69571457 -7.76074219 3.39990234 C-5.11903054 1.08045015 -3.55995797 0 0 0 Z " fill="#27318B" transform="translate(83,24)"/>
<path d="M0 0 C3.96 0 7.92 0 12 0 C12.09924823 4.87461475 12.17164581 9.74863497 12.21972656 14.62402344 C12.23978009 16.28070325 12.26703029 17.93731282 12.30175781 19.59375 C12.35055512 21.98194758 12.37303064 24.36920547 12.390625 26.7578125 C12.41127014 27.49242706 12.43191528 28.22704163 12.45318604 28.98391724 C12.45541318 34.146065 11.34095523 37.08218392 8 41 C5.75 42.375 5.75 42.375 4 43 C5.76597618 46.89805297 7.53862803 50.79303455 9.3125 54.6875 C9.81201172 55.79029297 10.31152344 56.89308594 10.82617188 58.02929688 C11.31279297 59.09599609 11.79941406 60.16269531 12.30078125 61.26171875 C12.74591064 62.24100342 13.19104004 63.22028809 13.6496582 64.22924805 C14.96619067 67.04135861 14.96619067 67.04135861 16.66870117 69.73364258 C18 72 18 72 18 74 C18.66 74 19.32 74 20 74 C20 74.99 20 75.98 20 77 C16.7 77 13.4 77 10 77 C9.34 73.7 8.68 70.4 8 67 C2.06 67.495 2.06 67.495 -4 68 C-4.66 70.97 -5.32 73.94 -6 77 C-9.3 77 -12.6 77 -16 77 C-10.33333333 65.66666667 -4.66666667 54.33333333 1 43 C0.05898437 43.020625 -0.88203125 43.04125 -1.8515625 43.0625 C-4.95075687 43.00097753 -6.40916945 42.59435726 -9 41 C-8.67 39.68 -8.34 38.36 -8 37 C-4.535 36.505 -4.535 36.505 -1 36 C-0.67 24.12 -0.34 12.24 0 0 Z M1 55 C0.34 56.98 -0.32 58.96 -1 61 C0.98 61 2.96 61 5 61 C4.34 59.02 3.68 57.04 3 55 C2.34 55 1.68 55 1 55 Z " fill="#E31A23" transform="translate(212,17)"/>
<path d="M0 0 C46.53 0.33 93.06 0.66 141 1 C141 2.65 141 4.3 141 6 C123.05888895 6.09337567 105.11784082 6.16394589 87.17653942 6.20724869 C78.84637016 6.22788794 70.51635175 6.25603438 62.1862793 6.30175781 C54.92712296 6.34158409 47.66807584 6.3674229 40.4088133 6.37635398 C36.56381387 6.38157594 32.71912694 6.39387717 28.87422752 6.42292023 C25.25694242 6.45002319 21.64009923 6.4584556 18.02272224 6.45243073 C16.05873106 6.45405993 14.09478825 6.47560952 12.13092041 6.49768066 C10.96564316 6.49218201 9.80036591 6.48668335 8.59977722 6.48101807 C7.58488315 6.48470524 6.56998907 6.48839241 5.52434063 6.49219131 C3 6 3 6 1.15001392 4.09493637 C0 2 0 2 0 0 Z " fill="#E31A23" transform="translate(93,95)"/>
<path d="M0 0 C3 1 3 1 4.41040039 3.32910156 C4.88469482 4.3394043 5.35898926 5.34970703 5.84765625 6.390625 C6.37037109 7.49277344 6.89308594 8.59492187 7.43164062 9.73046875 C7.96982422 10.89191406 8.50800781 12.05335937 9.0625 13.25 C9.60455078 14.39597656 10.14660156 15.54195312 10.70507812 16.72265625 C12.92649449 21.44007691 15.1055245 26.14042803 17 31 C17.66 31 18.32 31 19 31 C19 31.99 19 32.98 19 34 C15.7 34 12.4 34 9 34 C8.34 30.7 7.68 27.4 7 24 C3.04 24.33 -0.92 24.66 -5 25 C-5.66 27.97 -6.32 30.94 -7 34 C-10.3 34 -13.6 34 -17 34 C-17 33.01 -17 32.02 -17 31 C-16.34 31 -15.68 31 -15 31 C-14.72744385 30.29713867 -14.4548877 29.59427734 -14.17407227 28.87011719 C-12.00018005 23.55585707 -9.4250527 18.42294585 -6.9375 13.25 C-6.10508789 11.50783203 -6.10508789 11.50783203 -5.25585938 9.73046875 C-4.72669922 8.62832031 -4.19753906 7.52617188 -3.65234375 6.390625 C-3.16757568 5.38032227 -2.68280762 4.37001953 -2.18334961 3.32910156 C-1 1 -1 1 0 0 Z M0 11 C-0.66 13.31 -1.32 15.62 -2 18 C-0.02 18 1.96 18 4 18 C3.01 15.69 2.02 13.38 1 11 C0.67 11 0.34 11 0 11 Z " fill="#25318B" transform="translate(155,60)"/>
<path d="M0 0 C6.93 0 13.86 0 21 0 C19 6 19 6 17.25 7 C14.22004051 7 11.8075247 6.08472545 9 5 C9 7.97 9 10.94 9 14 C14.445 13.505 14.445 13.505 20 13 C18 18 18 18 16 21 C13.69 20.67 11.38 20.34 9 20 C9 22.64 9 25.28 9 28 C10.77131561 27.69024532 12.54203778 27.37709575 14.3125 27.0625 C15.29863281 26.88847656 16.28476563 26.71445313 17.30078125 26.53515625 C20.08189213 26.04253153 20.08189213 26.04253153 23 25 C22.41321669 28.52069985 21.64350079 30.71299843 20 34 C13.4 34 6.8 34 0 34 C0.33 31.69 0.66 29.38 1 27 C1.08230742 25.39733469 1.13042037 23.79227565 1.1328125 22.1875 C1.13410156 21.33929688 1.13539062 20.49109375 1.13671875 19.6171875 C1.13285156 18.75351563 1.12898438 17.88984375 1.125 17 C1.12886719 16.13632813 1.13273437 15.27265625 1.13671875 14.3828125 C1.13542969 13.53460938 1.13414063 12.68640625 1.1328125 11.8125 C1.13168457 11.05582031 1.13055664 10.29914063 1.12939453 9.51953125 C0.96550409 6.32830601 0.45190217 3.16331519 0 0 Z " fill="#25318B" transform="translate(94,60)"/>
<path d="M0 0 C0.99 0 1.98 0 3 0 C3.47626831 1.05127075 3.47626831 1.05127075 3.9621582 2.1237793 C5.40916526 5.31310636 6.86078346 8.50031401 8.3125 11.6875 C8.81201172 12.79029297 9.31152344 13.89308594 9.82617188 15.02929688 C10.31279297 16.09599609 10.79941406 17.16269531 11.30078125 18.26171875 C11.74591064 19.24100342 12.19104004 20.22028809 12.6496582 21.22924805 C13.96619067 24.04135861 13.96619067 24.04135861 15.66870117 26.73364258 C17 29 17 29 17 31 C17.66 31 18.32 31 19 31 C19 31.99 19 32.98 19 34 C15.7 34 12.4 34 9 34 C8.34 30.7 7.68 27.4 7 24 C3.04 24.33 -0.92 24.66 -5 25 C-5.66 27.97 -6.32 30.94 -7 34 C-10.3 34 -13.6 34 -17 34 C-11.33333333 22.66666667 -5.66666667 11.33333333 0 0 Z M0 12 C-0.66 13.98 -1.32 15.96 -2 18 C-0.02 18 1.96 18 4 18 C3.34 16.02 2.68 14.04 2 12 C1.34 12 0.68 12 0 12 Z " fill="#25318B" transform="translate(213,60)"/>
<path d="M0 0 C0 0.99 0 1.98 0 3 C-0.95519531 3.29132812 -1.91039062 3.58265625 -2.89453125 3.8828125 C-14.88021138 7.63680035 -24.56006799 12.14023422 -33.7890625 20.91796875 C-36 23 -36 23 -39.1875 25.375 C-42.77924307 28.72729353 -44.94949596 32.52820331 -47.38671875 36.76953125 C-47.91910156 37.50558594 -48.45148437 38.24164063 -49 39 C-49.99 39 -50.98 39 -52 39 C-52.84927636 34.43423221 -53.03700251 30.54799672 -52 26 C-48.27509799 21.44540798 -43.84246124 18.28399945 -39 15 C-38.0925 14.34257812 -37.185 13.68515625 -36.25 13.0078125 C-27.79080638 7.205012 -10.51565829 -3.50521943 0 0 Z " fill="#E31B23" transform="translate(106,4)"/>
<path d="M0 0 C2.125 6.75 2.125 6.75 1 9 C0.278125 8.505 -0.44375 8.01 -1.1875 7.5 C-4.14848659 5.92080715 -5.71253029 5.71821688 -9 6 C-8.69009574 9.18603328 -8.44131073 10.60791571 -6.00390625 12.7734375 C-5.19824219 13.30195312 -4.39257812 13.83046875 -3.5625 14.375 C-0.30788617 16.76794574 0.92148257 17.84016095 2.75 21.5625 C3.05388767 25.74095547 2.34634466 27.55869449 0 31 C-3.0332958 33.78984256 -4.96914866 34.37347968 -9.0625 34.25 C-9.91972656 34.23453125 -10.77695313 34.2190625 -11.66015625 34.203125 C-14 34 -14 34 -17 33 C-17 30.36 -17 27.72 -17 25 C-16.443125 25.309375 -15.88625 25.61875 -15.3125 25.9375 C-12.81411992 27.08540436 -10.73660292 27.71932278 -8 28 C-7.01 27.34 -6.02 26.68 -5 26 C-5.35405842 23.12959779 -5.85569709 22.13153765 -8.03125 20.1484375 C-8.8459375 19.56320313 -9.660625 18.97796875 -10.5 18.375 C-14.91066998 15.17866005 -14.91066998 15.17866005 -16 13 C-16.80180859 6.01281085 -16.80180859 6.01281085 -13.625 2 C-9.48739835 -0.97390119 -4.86932121 -0.4330424 0 0 Z " fill="#25318B" transform="translate(135,60)"/>
<path d="M0 0 C2.97 0 5.94 0 9 0 C8.67 9.24 8.34 18.48 8 28 C12.29 27.01 16.58 26.02 21 25 C20 29 20 29 18 34 C12.06 34 6.12 34 0 34 C0 22.78 0 11.56 0 0 Z " fill="#25318B" transform="translate(176,60)"/>
<path d="M0 0 C1.03124496 0.01041321 2.06248993 0.02082642 3.12498474 0.03155518 C4.80153893 0.05799103 4.80153893 0.05799103 6.51196289 0.08496094 C7.65621231 0.10145691 8.80046173 0.11795288 9.97938538 0.13494873 C12.40297061 0.17249344 14.82651081 0.21304529 17.25 0.25634766 C20.96552268 0.31901386 24.6809109 0.36047718 28.39672852 0.40136719 C30.74766213 0.44041974 33.09857508 0.48074198 35.44946289 0.52246094 C36.56514145 0.53198792 37.68082001 0.54151489 38.83030701 0.55133057 C40.38190269 0.58586334 40.38190269 0.58586334 41.96484375 0.62109375 C42.87592392 0.63521301 43.78700409 0.64933228 44.72569275 0.66387939 C47.44812034 1.13937415 48.34307064 1.94786845 50.04711914 4.06933594 C49.71711914 5.05933594 49.38711914 6.04933594 49.04711914 7.06933594 C30.56711914 6.73933594 12.08711914 6.40933594 -6.95288086 6.06933594 C-6.95288086 4.41933594 -6.95288086 2.76933594 -6.95288086 1.06933594 C-4.44927342 -0.18246778 -2.8000333 -0.03364185 0 0 Z " fill="#E31B23" transform="translate(15.952880859375,94.9306640625)"/>
<path d="M0 0 C0.66 0 1.32 0 2 0 C2.33 3.63 2.66 7.26 3 11 C3.99 11.33 4.98 11.66 6 12 C6 8.37 6 4.74 6 1 C6.99 0.67 7.98 0.34 9 0 C9.33 1.65 9.66 3.3 10 5 C11.093125 4.79375 12.18625 4.5875 13.3125 4.375 C17 4 17 4 20 6 C21.68437744 5.37943989 23.35008418 4.70710678 25 4 C27.8125 3.875 27.8125 3.875 30 4 C30 5.32 30 6.64 30 8 C29.01 8 28.02 8 27 8 C26.67 9.32 26.34 10.64 26 12 C28.64 11.67 31.28 11.34 34 11 C34.33 7.7 34.66 4.4 35 1 C35.99 0.67 36.98 0.34 38 0 C38.02685938 2.14576637 38.04633088 4.29162645 38.0625 6.4375 C38.07410156 7.63246094 38.08570313 8.82742187 38.09765625 10.05859375 C38 13 38 13 37 14 C34.27275721 14.10099488 31.57137477 14.13970529 28.84375 14.1328125 C27.61754944 14.13424759 27.61754944 14.13424759 26.36657715 14.13571167 C24.63484622 14.13639345 22.90311276 14.13453929 21.17138672 14.13037109 C18.51133518 14.12502279 15.8514525 14.13031612 13.19140625 14.13671875 C11.51302046 14.13605797 9.83463477 14.1347768 8.15625 14.1328125 C7.35521851 14.13483673 6.55418701 14.13686096 5.72888184 14.13894653 C0.11495079 14.11495079 0.11495079 14.11495079 -1 13 C-1.09873816 11.00200428 -1.12971799 9.00042842 -1.125 7 C-1.12757812 5.906875 -1.13015625 4.81375 -1.1328125 3.6875 C-1 1 -1 1 0 0 Z M10.8125 8.9375 C8.8899809 10.66757159 8.8899809 10.66757159 9 12 C11.64 12 14.28 12 17 12 C16.67 10.35 16.34 8.7 16 7 C12.88726618 6.66848238 12.88726618 6.66848238 10.8125 8.9375 Z M20 7 C20 8.65 20 10.3 20 12 C20.99 12 21.98 12 23 12 C23 10.68 23 9.36 23 8 C22.01 7.67 21.02 7.34 20 7 Z " fill="#2B3088" transform="translate(35,105)"/>
<path d="M0 0 C1.670625 0.061875 1.670625 0.061875 3.375 0.125 C3.705 2.435 4.035 4.745 4.375 7.125 C5.365 7.455 6.355 7.785 7.375 8.125 C7.705 5.815 8.035 3.505 8.375 1.125 C11.25 0.5 11.25 0.5 14.375 0.125 C15.035 0.785 15.695 1.445 16.375 2.125 C13.375 4.125 13.375 4.125 11.375 4.125 C11.045 5.445 10.715 6.765 10.375 8.125 C13.345 8.125 16.315 8.125 19.375 8.125 C19.705 5.485 20.035 2.845 20.375 0.125 C21.365 0.125 22.355 0.125 23.375 0.125 C23.375 2.765 23.375 5.405 23.375 8.125 C24.365 7.795 25.355 7.465 26.375 7.125 C27.60020264 4.11652582 27.60020264 4.11652582 28.375 1.125 C30.70794775 1.08258277 33.04202567 1.08407063 35.375 1.125 C36.375 2.125 36.375 2.125 36.5 5.625 C36.375 9.125 36.375 9.125 35.375 10.125 C32.41794679 10.21368299 29.48434944 10.24020296 26.52734375 10.22265625 C25.19770348 10.22053383 25.19770348 10.22053383 23.84120178 10.21836853 C20.99826746 10.21275215 18.15541069 10.20019691 15.3125 10.1875 C13.38997509 10.18248711 11.46744896 10.17792384 9.54492188 10.17382812 C4.82158451 10.16277741 0.09830542 10.14550183 -4.625 10.125 C-6.00625018 7.36249964 -5.81579306 5.17768901 -5.625 2.125 C-3.625 0.125 -3.625 0.125 0 0 Z M-1.625 3.125 C-1.955 4.445 -2.285 5.765 -2.625 7.125 C-1.635 7.125 -0.645 7.125 0.375 7.125 C0.375 5.805 0.375 4.485 0.375 3.125 C-0.285 3.125 -0.945 3.125 -1.625 3.125 Z M31.375 3.125 C31.045 4.445 30.715 5.765 30.375 7.125 C31.365 7.125 32.355 7.125 33.375 7.125 C33.045 5.805 32.715 4.485 32.375 3.125 C32.045 3.125 31.715 3.125 31.375 3.125 Z " fill="#27318B" transform="translate(86.625,108.875)"/>
<path d="M0 0 C2.97 0.495 2.97 0.495 6 1 C5.67 1.99 5.34 2.98 5 4 C4.01 4 3.02 4 2 4 C3.32 4.33 4.64 4.66 6 5 C6 5.66 6 6.32 6 7 C2.37 7 -1.26 7 -5 7 C-4.67 6.34 -4.34 5.68 -4 5 C-3.34 5 -2.68 5 -2 5 C-1.34 3.35 -0.68 1.7 0 0 Z " fill="#27318B" transform="translate(27,112)"/>
<path d="M0 0 C0.66 0 1.32 0 2 0 C2 4.62 2 9.24 2 14 C1.01 14 0.02 14 -1 14 C-1.02685938 11.85423363 -1.04633088 9.70837355 -1.0625 7.5625 C-1.07410156 6.36753906 -1.08570312 5.17257813 -1.09765625 3.94140625 C-1 1 -1 1 0 0 Z " fill="#27318B" transform="translate(75,105)"/>
<path d="M0 0 C2.33944736 0.28730055 4.6739143 0.61936779 7 1 C7 2.32 7 3.64 7 5 C4.36 5 1.72 5 -1 5 C-1 1 -1 1 0 0 Z " fill="#E31A23" transform="translate(111,10)"/>
<path d="M0 0 C0 1.32 0 2.64 0 4 C-2.64 4 -5.28 4 -8 4 C-8 2.68 -8 1.36 -8 0 C-5.13822943 -1.43088528 -3.06624227 -0.59991697 0 0 Z " fill="#E31B23" transform="translate(107,11)"/>
<path d="M0 0 C1.65 0.33 3.3 0.66 5 1 C5 1.66 5 2.32 5 3 C3.02 3 1.04 3 -1 3 C-0.67 2.01 -0.34 1.02 0 0 Z " fill="#27318B" transform="translate(106,105)"/>
<path d="M0 0 C1.65 0 3.3 0 5 0 C5 0.99 5 1.98 5 3 C3.35 3 1.7 3 0 3 C0 2.01 0 1.02 0 0 Z " fill="#27318B" transform="translate(84,105)"/>
<path d="M0 0 C0.99 0.33 1.98 0.66 3 1 C2.01 1.99 1.02 2.98 0 4 C0 2.68 0 1.36 0 0 Z " fill="#27318B" transform="translate(18,116)"/>
<path d="M0 0 C0.99 0.33 1.98 0.66 3 1 C2.67 1.99 2.34 2.98 2 4 C1.01 3.01 0.02 2.02 -1 1 C-0.67 0.67 -0.34 0.34 0 0 Z " fill="#27318B" transform="translate(10,116)"/>
<path d="M0 0 C2 1 2 1 2 1 Z " fill="#E31B23" transform="translate(100,105)"/>
<path d="" fill="#E31B24" transform="translate(0,0)"/>
</svg>
