<svg xmlns="http://www.w3.org/2000/svg" xmlns:xlink="http://www.w3.org/1999/xlink" width="500" zoomAndPan="magnify" viewBox="0 0 375 374.999991" height="500" preserveAspectRatio="xMidYMid meet" version="1.0"><defs><g/><clipPath id="3dd313b2e7"><path d="M 126 82.714844 L 227 82.714844 L 227 143 L 126 143 Z M 126 82.714844 " clip-rule="nonzero"/></clipPath><clipPath id="d4b06de2a1"><path d="M 198 140 L 252.1875 140 L 252.1875 212 L 198 212 Z M 198 140 " clip-rule="nonzero"/></clipPath><clipPath id="5b6dacc237"><path d="M 122.4375 128 L 251 128 L 251 214 L 122.4375 214 Z M 122.4375 128 " clip-rule="nonzero"/></clipPath></defs><g clip-path="url(#3dd313b2e7)"><path fill="#fc0000" d="M 198.050781 142.886719 C 198.050781 142.886719 197.601562 98.332031 126.289062 124.714844 C 126.289062 124.714844 151.242188 96.957031 189.417969 110.273438 C 189.417969 110.273438 198.316406 89.566406 226.789062 96.257812 C 226.789062 96.257812 185.628906 106.277344 213.320312 135.234375 C 213.320312 135.234375 203.25 139.117188 198.050781 142.886719 Z M 172.648438 93.71875 C 172.648438 99.796875 177.5625 104.722656 183.625 104.722656 C 189.6875 104.722656 194.601562 99.796875 194.601562 93.71875 C 194.601562 87.640625 189.6875 82.714844 183.625 82.714844 C 177.5625 82.714844 172.648438 87.640625 172.648438 93.71875 Z M 172.648438 93.71875 " fill-opacity="1" fill-rule="nonzero"/></g><g clip-path="url(#d4b06de2a1)"><path fill="#86c100" d="M 252.160156 147.945312 C 252.160156 155.03125 251.015625 162.113281 248.753906 168.828125 C 245.242188 179.242188 239.050781 188.707031 230.941406 196.101562 C 226.972656 199.714844 222.5625 202.839844 217.835938 205.375 C 216.550781 206.070312 203.851562 212.234375 203.179688 211.054688 C 199.285156 204.222656 197.613281 196.140625 198.472656 188.320312 C 199.289062 180.871094 202.441406 173.019531 207.660156 167.554688 C 207.273438 167.960938 205.902344 178.238281 205.933594 180.496094 C 205.992188 184.582031 207.527344 189.277344 211.054688 191.816406 C 216.570312 195.796875 223.726562 191.3125 228.21875 187.742188 C 233.4375 183.59375 237.542969 178.074219 240.863281 172.328125 C 246.480469 162.601562 249.8125 151.628906 251.730469 140.601562 C 252.003906 143.015625 252.160156 145.460938 252.160156 147.945312 Z M 209.945312 175.070312 C 209.945312 180.921875 214.675781 185.667969 220.511719 185.667969 C 226.347656 185.667969 231.078125 180.921875 231.078125 175.070312 C 231.078125 169.21875 226.347656 164.476562 220.511719 164.476562 C 214.675781 164.476562 209.945312 169.21875 209.945312 175.070312 Z M 209.945312 175.070312 " fill-opacity="1" fill-rule="nonzero"/></g><g clip-path="url(#5b6dacc237)"><path fill="#ffa300" d="M 172.648438 128.578125 C 180.53125 128.578125 186.921875 134.984375 186.921875 142.886719 C 186.921875 150.792969 180.53125 157.199219 172.648438 157.199219 C 164.765625 157.199219 158.375 150.792969 158.375 142.890625 C 158.375 134.984375 164.765625 128.578125 172.648438 128.578125 Z M 250.582031 133.625 C 209.394531 131.097656 171.160156 170.847656 171.160156 170.847656 C 146.265625 142.886719 122.464844 140.492188 122.464844 140.492188 C 122.460938 140.519531 122.460938 140.542969 122.457031 140.570312 C 127.117188 144.257812 135.730469 151.578125 143.667969 161 C 150.460938 169.0625 155.441406 177.0625 158.46875 184.785156 C 161.589844 192.742188 162.628906 200.417969 161.585938 207.671875 C 167.808594 210.460938 172.242188 211.464844 172.242188 211.464844 C 186.523438 215.445312 196.730469 212.234375 196.730469 212.234375 C 167.652344 158.015625 250.582031 133.625 250.582031 133.625 Z M 250.582031 133.625 " fill-opacity="1" fill-rule="nonzero"/></g><g fill="#224814" fill-opacity="1"><g transform="translate(100.176073, 266.009939)"><g><path d="M 21.109375 7.359375 C 18.515625 7.359375 16.078125 6.867188 13.796875 5.890625 C 11.515625 4.921875 9.507812 3.570312 7.78125 1.84375 C 6.0625 0.125 4.710938 -1.875 3.734375 -4.15625 C 2.765625 -6.4375 2.28125 -8.875 2.28125 -11.46875 C 2.28125 -14.394531 2.894531 -17.101562 4.125 -19.59375 C 5.363281 -22.09375 7.046875 -24.222656 9.171875 -25.984375 C 11.304688 -27.753906 13.734375 -28.992188 16.453125 -29.703125 L 16.453125 -11.140625 C 16.453125 -9.710938 16.914062 -8.632812 17.84375 -7.90625 C 18.769531 -7.175781 19.859375 -6.8125 21.109375 -6.8125 C 22.296875 -6.8125 23.367188 -7.175781 24.328125 -7.90625 C 25.285156 -8.632812 25.765625 -9.710938 25.765625 -11.140625 L 25.765625 -21.421875 C 25.765625 -23.066406 26.109375 -24.597656 26.796875 -26.015625 C 27.484375 -27.429688 28.421875 -28.664062 29.609375 -29.71875 C 30.796875 -30.769531 32.132812 -31.59375 33.625 -32.1875 C 35.113281 -32.78125 36.648438 -33.078125 38.234375 -33.078125 L 51.171875 -33.078125 C 52.898438 -33.078125 54.519531 -32.75 56.03125 -32.09375 C 57.539062 -31.4375 58.875 -30.535156 60.03125 -29.390625 C 61.1875 -28.253906 62.082031 -26.929688 62.71875 -25.421875 C 63.363281 -23.910156 63.6875 -22.289062 63.6875 -20.5625 L 63.6875 0 L 60.21875 0 C 58.476562 0 56.851562 -0.316406 55.34375 -0.953125 C 53.84375 -1.597656 52.519531 -2.5 51.375 -3.65625 C 50.226562 -4.8125 49.328125 -6.140625 48.671875 -7.640625 C 48.023438 -9.148438 47.703125 -10.773438 47.703125 -12.515625 L 47.703125 -18.734375 L 44.453125 -18.734375 L 44.3125 -10.96875 C 44.3125 -8.3125 43.789062 -5.863281 42.75 -3.625 C 41.71875 -1.394531 40.265625 0.539062 38.390625 2.1875 C 36.523438 3.832031 34.3125 5.101562 31.75 6 C 29.1875 6.90625 26.382812 7.359375 23.34375 7.359375 Z M 17.359375 18.78125 C 16.472656 18.78125 15.679688 18.554688 14.984375 18.109375 C 14.285156 17.671875 13.738281 17.09375 13.34375 16.375 C 12.945312 15.664062 12.75 14.910156 12.75 14.109375 C 12.75 12.867188 13.195312 11.78125 14.09375 10.84375 C 14.988281 9.914062 16.078125 9.453125 17.359375 9.453125 C 18.765625 9.453125 19.890625 9.914062 20.734375 10.84375 C 21.585938 11.78125 22.015625 12.867188 22.015625 14.109375 C 22.015625 15.421875 21.566406 16.523438 20.671875 17.421875 C 19.773438 18.328125 18.671875 18.78125 17.359375 18.78125 Z M 26.90625 18.78125 C 25.625 18.78125 24.523438 18.320312 23.609375 17.40625 C 22.703125 16.488281 22.25 15.390625 22.25 14.109375 C 22.25 12.835938 22.703125 11.742188 23.609375 10.828125 C 24.523438 9.910156 25.625 9.453125 26.90625 9.453125 C 28.28125 9.453125 29.390625 9.925781 30.234375 10.875 C 31.085938 11.820312 31.515625 12.898438 31.515625 14.109375 C 31.515625 15.390625 31.070312 16.488281 30.1875 17.40625 C 29.3125 18.320312 28.21875 18.78125 26.90625 18.78125 Z M 26.90625 18.78125 "/></g></g></g><g fill="#224814" fill-opacity="1"><g transform="translate(163.849977, 266.009939)"><g><path d="M -4.5625 0 L -4.5625 -18.734375 L 5.671875 -18.734375 C 5.671875 -21.316406 6.15625 -23.75 7.125 -26.03125 C 8.101562 -28.320312 9.457031 -30.332031 11.1875 -32.0625 C 12.925781 -33.800781 14.929688 -35.164062 17.203125 -36.15625 C 19.472656 -37.144531 21.898438 -37.640625 24.484375 -37.640625 C 27.378906 -37.640625 30.070312 -37.03125 32.5625 -35.8125 C 35.0625 -34.59375 37.203125 -32.925781 38.984375 -30.8125 C 40.773438 -28.695312 42.019531 -26.253906 42.71875 -23.484375 L 24.34375 -23.484375 C 23.070312 -23.421875 22 -22.929688 21.125 -22.015625 C 20.257812 -21.109375 19.828125 -20.015625 19.828125 -18.734375 L 43.21875 -18.734375 L 43.21875 0 Z M -4.5625 0 "/></g></g></g><g fill="#224814" fill-opacity="1"><g transform="translate(207.06053, 266.009939)"><g><path d="M -4.5625 0 L -4.5625 -18.734375 L 5.671875 -18.734375 L 5.671875 -20.28125 C 5.671875 -22.050781 6.003906 -23.710938 6.671875 -25.265625 C 7.335938 -26.816406 8.253906 -28.175781 9.421875 -29.34375 C 10.597656 -30.519531 11.957031 -31.4375 13.5 -32.09375 C 15.039062 -32.75 16.691406 -33.078125 18.453125 -33.078125 L 24.90625 -33.078125 L 24.90625 -12.84375 C 24.90625 -11.070312 24.578125 -9.410156 23.921875 -7.859375 C 23.265625 -6.304688 22.347656 -4.941406 21.171875 -3.765625 C 20.003906 -2.597656 18.640625 -1.675781 17.078125 -1 C 15.523438 -0.332031 13.867188 0 12.109375 0 Z M 25.953125 0 L 25.953125 -20.28125 C 25.953125 -22.050781 26.285156 -23.710938 26.953125 -25.265625 C 27.617188 -26.816406 28.539062 -28.175781 29.71875 -29.34375 C 30.894531 -30.519531 32.25 -31.4375 33.78125 -32.09375 C 35.320312 -32.75 36.972656 -33.078125 38.734375 -33.078125 L 45.1875 -33.078125 L 45.1875 -12.84375 C 45.1875 -11.070312 44.859375 -9.410156 44.203125 -7.859375 C 43.546875 -6.304688 42.628906 -4.941406 41.453125 -3.765625 C 40.285156 -2.597656 38.925781 -1.675781 37.375 -1 C 35.820312 -0.332031 34.160156 0 32.390625 0 Z M 46.234375 0 L 46.234375 -20.28125 C 46.234375 -22.050781 46.5625 -23.710938 47.21875 -25.265625 C 47.875 -26.816406 48.785156 -28.175781 49.953125 -29.34375 C 51.128906 -30.519531 52.492188 -31.4375 54.046875 -32.09375 C 55.597656 -32.75 57.257812 -33.078125 59.03125 -33.078125 L 65.46875 -33.078125 L 65.46875 -12.84375 C 65.46875 -11.070312 65.140625 -9.410156 64.484375 -7.859375 C 63.828125 -6.304688 62.910156 -4.941406 61.734375 -3.765625 C 60.566406 -2.597656 59.207031 -1.675781 57.65625 -1 C 56.101562 -0.332031 54.441406 0 52.671875 0 Z M 46.234375 0 "/></g></g></g></svg>